<?xml version="1.0" standalone="no"?>
<!DOCTYPE svg PUBLIC "-//W3C//DTD SVG 20010904//EN"
 "http://www.w3.org/TR/2001/REC-SVG-20010904/DTD/svg10.dtd">
<svg version="1.0" xmlns="http://www.w3.org/2000/svg"
 width="512.000000pt" height="512.000000pt" viewBox="0 0 512.000000 512.000000"
 preserveAspectRatio="xMidYMid meet">
<metadata>
Created by potrace 1.14, written by Peter Selinger 2001-2017
</metadata>
<g transform="translate(0.000000,512.000000) scale(0.100000,-0.100000)"
fill="#000000" stroke="none">
<path d="M1183 4125 c-109 -40 -306 -144 -373 -195 -109 -84 -128 -101 -244
-215 -127 -126 -164 -169 -178 -207 -5 -16 -14 -28 -19 -28 -16 0 -98 -184
-110 -245 -6 -33 -12 -106 -13 -162 0 -56 -4 -105 -8 -109 -11 -10 -10 -52 1
-56 5 -1 11 -45 14 -96 5 -84 3 -99 -20 -150 -27 -62 -44 -192 -24 -192 6 0
11 -5 11 -11 0 -5 -4 -7 -10 -4 -15 9 -12 -4 9 -39 13 -21 20 -58 24 -118 4
-76 2 -89 -14 -104 -11 -9 -19 -23 -19 -31 0 -7 -4 -13 -10 -13 -5 0 -10 -9
-10 -19 0 -11 -5 -23 -10 -26 -17 -11 -11 -60 10 -83 19 -20 20 -34 20 -169
-1 -197 -3 -232 -12 -227 -5 3 -8 -4 -8 -15 0 -12 6 -21 13 -21 6 0 4 -5 -7
-11 -13 -8 -15 -13 -6 -19 15 -9 27 -152 24 -285 -1 -56 3 -105 8 -112 8 -10
6 -13 -6 -13 -9 0 -16 -7 -16 -15 0 -10 10 -14 33 -14 17 0 42 -2 55 -5 12 -3
22 -1 22 5 0 5 10 -1 22 -13 14 -14 23 -18 26 -10 5 15 64 16 80 0 6 -6 35
-13 64 -14 76 -5 113 -10 127 -18 6 -4 11 -1 11 6 0 10 2 10 9 -1 5 -7 15 -11
22 -9 10 3 13 33 12 129 -1 78 1 113 7 94 4 -16 8 -69 9 -116 l1 -86 33 -1
c50 -3 135 -19 107 -21 -22 -1 -23 -3 -7 -12 13 -7 22 -7 31 0 10 8 21 7 40
-3 18 -9 23 -16 14 -19 -9 -4 -8 -6 4 -6 9 -1 20 3 23 9 3 5 20 10 37 10 26 0
29 2 18 15 -7 9 -24 14 -39 13 l-26 -3 -3 118 c-2 79 1 117 8 117 6 0 8 -4 5
-10 -3 -5 1 -10 10 -10 12 0 14 -4 5 -19 -16 -30 -13 -46 5 -31 12 10 15 10
15 0 0 -6 -9 -14 -20 -17 -11 -3 -20 -10 -20 -15 0 -5 6 -6 13 -2 8 5 8 2 -2
-9 -12 -15 -11 -17 5 -17 14 0 16 -2 6 -9 -10 -6 -9 -10 7 -14 19 -5 21 -1 21
35 0 23 4 37 10 33 6 -3 10 -22 10 -40 0 -33 1 -34 26 -23 21 10 27 9 35 -3
12 -19 11 -56 -1 -64 -26 -16 -7 -25 39 -19 48 6 50 6 45 -17 l-6 -24 21 24
c12 13 21 18 21 12 0 -6 7 -11 15 -11 11 0 15 12 15 43 0 23 0 162 0 308 -1
236 1 267 16 273 29 11 34 6 34 -39 0 -33 -4 -45 -15 -45 -8 0 -15 -5 -15 -11
0 -6 7 -9 15 -5 11 4 15 -2 15 -28 0 -24 -6 -36 -22 -44 l-23 -11 23 0 c17 -1
22 -7 22 -26 0 -16 -6 -25 -15 -25 -8 0 -15 -4 -15 -10 0 -5 6 -10 14 -10 27
0 27 -29 0 -36 -27 -7 -26 -14 3 -18 10 -2 19 -13 21 -24 3 -18 -2 -22 -23
-22 -16 0 -24 -4 -19 -11 3 -6 15 -9 25 -6 15 4 19 0 19 -24 0 -19 -5 -29 -15
-29 -8 0 -15 -5 -15 -11 0 -6 7 -9 15 -5 23 9 21 -92 -2 -111 -17 -13 -16 -14
5 -10 12 3 20 1 17 -3 -3 -5 -1 -12 5 -15 8 -5 9 44 4 160 -4 126 -3 166 6
160 6 -4 9 -10 6 -13 -4 -3 1 -16 10 -30 11 -17 12 -22 3 -17 -11 6 -12 5 -1
-6 6 -7 12 -23 12 -35 0 -13 5 -26 10 -29 6 -3 10 1 10 9 0 9 6 16 14 16 19 0
26 33 9 48 -13 13 -10 32 6 32 8 0 11 -10 12 -55 3 -76 2 -78 -38 -70 -30 5
-35 4 -26 -7 6 -7 8 -26 6 -41 -2 -18 0 -26 7 -22 6 3 10 -3 10 -14 0 -12 -4
-21 -10 -21 -13 0 -13 -60 0 -80 8 -13 10 -12 10 3 0 13 6 17 22 15 15 -2 24
3 27 18 5 19 8 20 19 8 7 -8 8 -14 2 -14 -5 0 -10 -5 -10 -11 0 -5 5 -7 10 -4
6 3 10 1 10 -5 0 -7 -9 -14 -20 -17 -28 -7 -25 -23 5 -23 22 0 30 9 26 32 0 4
15 0 34 -9 19 -9 35 -23 35 -30 0 -18 29 -16 36 2 4 9 11 14 18 13 6 -1 22 4
34 11 l24 13 -5 184 c-5 155 -3 184 9 184 11 0 14 -25 16 -132 1 -73 0 -149
-1 -168 -3 -50 8 -100 22 -100 9 0 11 39 9 155 -2 127 0 155 11 155 9 0 14 12
14 35 0 44 -14 46 -20 3 -4 -32 -4 -32 -5 5 -1 24 2 37 11 37 9 0 9 2 0 8 -8
5 -13 41 -14 102 -3 149 -2 150 25 150 22 0 24 -3 25 -72 0 -40 3 -156 7 -259
l6 -185 -23 -12 c-24 -12 -24 -12 -1 -8 20 4 22 0 24 -47 l1 -52 7 60 c3 33 4
101 2 151 -2 58 1 94 7 99 6 3 11 11 11 16 0 6 -4 7 -10 4 -5 -3 -10 -2 -10 4
0 5 6 12 13 15 10 5 10 7 0 12 -19 8 -16 30 5 31 16 1 17 -14 17 -193 0 -107
3 -194 7 -194 5 0 9 73 9 163 1 89 3 154 6 144 3 -10 9 -14 16 -10 7 4 7 1 -1
-9 -20 -25 -10 -77 18 -99 14 -10 20 -19 13 -19 -6 0 -15 5 -18 10 -10 17 -24
2 -18 -21 4 -12 17 -22 34 -26 28 -5 29 -8 29 -58 0 -50 1 -53 30 -59 66 -13
25 -25 -86 -25 -64 0 -119 -2 -122 -5 -3 -4 102 -6 234 -7 131 -1 250 -4 264
-9 25 -7 24 -9 -20 -23 -8 -3 -2 -6 13 -6 16 -1 30 5 33 14 4 9 19 15 38 15
18 0 36 4 41 9 6 5 19 11 30 14 15 4 14 5 -7 6 -15 0 -32 9 -37 19 -7 14 -18
17 -46 14 -27 -3 -34 -7 -24 -14 11 -8 11 -9 -1 -5 -15 4 -18 53 -12 202 1 22
1 49 1 60 -1 11 -1 97 1 192 1 95 -1 176 -4 182 -11 18 4 36 33 38 l29 2 1
-129 c1 -84 -2 -130 -9 -130 -5 0 -10 -5 -10 -11 0 -5 5 -7 10 -4 6 3 10 1 10
-4 0 -6 -7 -11 -16 -11 -8 0 -12 -5 -9 -10 4 -6 11 -8 16 -5 5 4 9 -6 9 -20 0
-20 -4 -26 -15 -21 -11 4 -15 -3 -16 -27 -1 -18 -1 -37 0 -44 1 -6 -3 -14 -8
-18 -7 -4 -7 -15 0 -32 5 -14 7 -28 5 -30 -3 -3 4 -14 15 -26 30 -32 25 -55
-13 -60 -18 -2 -4 -4 32 -4 36 0 55 2 43 4 -26 5 -33 21 -22 48 8 19 8 19 15
-2 7 -26 21 -31 21 -8 0 8 -4 15 -9 15 -4 0 -8 5 -8 11 0 5 5 7 10 4 6 -3 10
-1 10 6 0 6 -8 9 -20 6 -18 -5 -20 0 -20 54 0 32 4 59 9 59 5 0 11 9 14 20 5
21 27 28 27 9 0 -5 -4 -7 -10 -4 -5 3 -10 1 -10 -4 0 -6 5 -11 11 -11 6 0 9
-33 8 -90 -1 -50 1 -93 4 -97 4 -3 13 0 22 7 13 11 15 5 15 -49 0 -34 4 -61
10 -61 6 0 10 7 10 16 0 10 6 14 15 10 8 -3 15 -1 15 5 0 6 7 9 15 5 31 -11
45 5 45 52 0 25 3 42 8 38 4 -4 7 -34 7 -67 0 -32 -3 -59 -7 -59 -5 0 -8 7 -8
15 0 8 -4 15 -10 15 -13 0 -13 -37 0 -45 12 -7 80 4 78 14 -1 3 4 39 12 79 8
44 10 76 4 80 -5 4 -8 54 -6 111 2 69 7 100 13 90 7 -11 9 -9 9 9 0 31 25 78
45 86 9 3 33 6 53 6 28 0 33 -3 22 -10 -10 -6 -11 -10 -2 -10 7 0 12 -15 13
-37 0 -21 3 -32 6 -25 2 6 11 12 18 12 10 0 13 -33 13 -149 0 -82 2 -154 6
-159 3 -5 2 -32 -3 -58 -7 -35 -6 -51 2 -56 7 -4 -3 -8 -23 -9 -60 -3 54 -17
143 -18 67 -1 77 1 76 17 0 10 -3 12 -6 5 -3 -8 -22 -12 -51 -12 -26 1 -37 4
-24 6 23 4 30 27 12 38 -13 8 -13 85 -1 85 5 0 15 2 23 5 9 4 14 -5 15 -25 1
-18 -2 -28 -7 -25 -6 4 -10 1 -10 -5 0 -6 8 -10 18 -8 11 3 16 12 14 27 -1 17
2 22 13 17 8 -3 15 -1 15 4 0 5 -8 11 -17 13 -10 3 2 6 27 7 25 1 53 3 63 5 9
2 17 -1 17 -6 0 -5 -12 -9 -27 -9 -41 0 -24 -8 30 -13 27 -3 47 -1 47 5 0 5
-9 6 -20 3 -11 -3 -20 -2 -20 3 0 5 9 12 21 15 27 7 34 -13 21 -66 -16 -66
-11 -101 7 -53 9 22 12 23 63 15 29 -4 69 -10 88 -12 34 -4 34 -4 10 -13 -20
-7 -12 -10 45 -14 39 -3 84 -3 100 1 l30 7 -30 2 c-16 2 -45 2 -62 1 -53 -4
-64 13 -13 19 32 4 46 10 48 22 2 10 -1 18 -7 18 -6 0 -11 -7 -11 -15 0 -9 -9
-15 -22 -14 -22 0 -22 1 -3 9 18 8 17 9 -8 9 -16 1 -26 -3 -22 -9 3 -5 1 -10
-4 -10 -7 0 -11 42 -11 119 0 105 2 120 18 124 16 4 16 5 -1 6 -15 1 -18 11
-17 84 0 45 -1 91 -2 102 -1 11 -1 44 0 73 l2 52 35 0 35 0 0 -230 c0 -155 3
-230 11 -230 6 0 10 32 9 88 -2 155 -1 184 10 177 7 -4 11 -55 10 -133 0 -70
2 -151 6 -179 5 -38 3 -53 -5 -53 -7 0 -10 -4 -6 -10 3 -5 14 -1 25 10 11 11
28 20 38 20 13 0 14 -2 4 -9 -11 -6 -10 -10 5 -17 25 -11 412 -11 410 0 -1 5
14 14 33 20 39 11 51 23 43 43 -3 7 0 13 6 13 18 0 13 -28 -9 -50 -19 -19 -19
-20 -1 -20 10 0 21 9 24 20 3 14 14 20 31 20 14 0 26 -4 26 -9 0 -5 11 -9 25
-9 22 0 27 7 36 44 6 24 15 41 20 38 12 -7 11 -64 -1 -64 -5 0 -10 -4 -10 -10
0 -13 37 -13 44 -1 4 5 0 12 -6 14 -7 3 -2 6 12 6 14 1 30 -7 37 -17 10 -16
18 -17 74 -9 35 5 78 11 94 13 l30 4 -2 92 c-1 51 -2 134 -3 183 -1 50 -5 82
-9 72 -5 -14 -11 -7 -25 32 -10 28 -23 52 -30 52 -69 8 -81 4 -98 -31 -13 -25
-18 -59 -18 -117 0 -81 0 -82 -27 -86 l-28 -4 28 -2 c24 -1 27 -5 27 -36 0
-33 -2 -35 -35 -35 l-35 0 0 150 c0 104 3 150 11 150 8 0 8 4 1 13 -11 13 -15
51 -13 138 l1 56 35 -11 c35 -11 35 -11 34 -68 -1 -50 -4 -57 -23 -61 -20 -4
-20 -4 2 -6 27 -1 27 -1 1 -45 -16 -28 -18 -39 -9 -53 9 -14 10 -14 7 -2 -6
18 26 73 36 63 3 -4 4 5 1 20 -5 29 -4 29 68 17 l46 -8 8 36 c19 92 8 157 -26
148 -12 -3 -17 4 -18 30 -2 19 0 43 3 54 11 35 25 20 26 -28 1 -37 4 -29 10
32 4 44 5 90 3 101 -4 14 0 24 13 28 17 7 17 8 1 17 -23 13 -25 79 -4 79 34 0
65 -19 63 -40 -2 -24 -19 -26 -37 -5 -7 8 -16 12 -21 9 -19 -11 -8 -23 27 -30
35 -6 36 -8 30 -43 -3 -20 -6 -48 -6 -63 0 -20 -6 -28 -22 -31 l-23 -4 23 -2
c17 -1 22 -7 22 -30 0 -16 -6 -31 -13 -34 -9 -3 -7 -9 5 -18 18 -14 18 -15 6
-172 -1 -21 -6 -26 -19 -22 -23 8 -29 -5 -22 -48 6 -42 23 -50 23 -12 0 16 6
25 15 25 8 0 15 -8 15 -17 0 -10 5 -25 11 -33 8 -12 9 -10 7 10 -3 33 8 50 35
51 15 1 9 5 -18 14 l-40 13 40 3 c35 2 36 3 10 6 -36 6 -44 16 -37 49 5 29 20
27 40 -7 12 -21 12 -22 0 -7 -15 18 -28 14 -28 -8 0 -14 69 -24 77 -11 3 5 9
3 14 -4 6 -9 9 0 9 26 0 28 -3 36 -9 25 -6 -8 -7 -18 -5 -22 3 -4 -2 -5 -10
-2 -12 5 -12 8 2 25 22 26 24 59 3 60 -54 2 -94 16 -86 29 8 13 51 13 76 -1
19 -10 20 -8 18 18 -2 15 -8 34 -14 42 -7 11 -7 13 3 7 10 -6 11 12 6 87 -6
86 -5 94 12 99 42 9 54 -1 54 -48 0 -24 -4 -44 -10 -44 -5 0 -10 11 -10 25 0
27 -14 34 -23 11 -3 -8 -1 -16 5 -18 7 -3 8 -9 3 -19 -15 -23 -14 -39 1 -39 9
0 13 4 9 9 -3 5 -2 12 3 15 5 3 14 -27 20 -66 10 -69 24 -92 49 -83 7 2 10 -2
6 -11 -3 -8 -12 -13 -19 -10 -8 3 -14 -1 -14 -9 0 -7 8 -16 18 -18 13 -4 12
-5 -5 -6 -18 -1 -24 7 -31 42 -6 23 -10 32 -11 20 -1 -13 -7 -23 -13 -23 -10
0 -10 -2 0 -9 13 -8 19 -37 21 -108 1 -40 3 -43 29 -42 23 2 24 2 5 6 -19 4
-23 11 -23 39 0 32 2 34 35 34 32 0 35 -2 35 -30 0 -16 5 -30 10 -30 13 0 13
43 -1 57 -14 14 -13 265 2 274 8 5 8 8 0 13 -6 4 -11 22 -11 39 0 40 -30 102
-50 102 -22 0 -29 14 -24 54 l4 36 -13 -28 c-7 -15 -16 -24 -20 -21 -4 4 -7 2
-7 -4 0 -7 5 -12 11 -12 6 0 9 -6 6 -14 -3 -8 1 -17 10 -20 12 -5 13 -9 3 -21
-7 -8 -18 -15 -24 -15 -6 0 -4 5 4 10 12 7 8 10 -15 10 -29 0 -30 1 -29 45 1
29 -2 45 -10 44 -29 -4 -56 2 -56 12 0 5 5 7 10 4 6 -3 10 -2 10 4 0 5 -6 12
-12 14 -10 4 -10 6 0 6 6 1 12 8 12 16 0 13 3 13 20 3 24 -15 29 -10 32 35 3
32 6 36 23 31 24 -8 34 -22 36 -49 0 -15 3 -13 9 8 5 16 6 38 3 50 -3 12 -6
38 -8 58 -1 20 -6 42 -10 49 -5 8 -1 8 13 -1 12 -7 18 -17 15 -22 -3 -6 5 -8
20 -5 14 3 26 2 25 -1 -2 -20 4 -33 21 -39 14 -5 16 -12 10 -27 -8 -20 -8 -20
-14 0 -3 12 -15 27 -26 33 -19 12 -19 12 -4 -12 11 -17 14 -37 10 -70 -3 -25
-1 -46 4 -46 11 0 21 25 21 53 0 20 1 20 18 4 15 -16 15 -19 2 -27 -13 -9 -13
-11 -1 -19 8 -5 11 -16 8 -25 -4 -9 -2 -16 2 -16 5 0 9 21 9 46 0 53 6 62 27
44 9 -8 15 -29 15 -57 0 -29 4 -42 11 -38 6 4 8 13 5 21 -3 8 1 14 8 14 10 0
13 -14 10 -55 -3 -46 0 -58 19 -75 14 -14 23 -17 26 -9 2 6 -4 16 -13 21 -12
7 -16 24 -16 69 0 33 4 58 9 55 11 -7 21 -56 10 -56 -4 0 -5 -12 -3 -27 7 -36
14 -42 14 -12 0 17 3 20 9 11 5 -9 12 1 21 32 7 24 9 50 5 57 -5 7 -4 10 3 5
6 -4 12 5 15 21 2 16 3 -1 1 -37 -4 -71 5 -130 21 -133 6 -1 11 17 13 40 2 33
0 42 -15 45 -15 3 -16 5 -2 17 12 12 14 26 6 79 -4 35 -15 76 -24 91 -25 40
-65 81 -80 81 -7 0 -13 4 -13 10 0 17 -72 90 -82 84 -5 -3 -27 13 -48 35 -23
23 -50 42 -64 43 -13 1 -23 6 -20 10 2 4 -16 16 -41 27 -25 11 -45 23 -45 26
0 3 5 3 12 -1 7 -4 8 -3 4 4 -4 7 -16 12 -27 12 -22 0 -57 16 -76 36 -17 16
-135 54 -170 54 -19 0 -24 3 -15 9 11 7 11 9 -2 14 -9 4 -16 3 -16 -2 0 -4
-11 -6 -25 -3 -14 2 -23 8 -20 12 7 11 -130 43 -187 44 -25 1 -42 4 -36 7 6 4
-13 12 -40 19 -28 6 -55 9 -61 6 -5 -3 -30 3 -56 14 -31 13 -70 20 -118 21
-44 0 -64 3 -53 8 18 7 18 8 -5 14 -34 9 -41 9 -34 -3 12 -20 -31 -10 -102 22
-12 6 -35 8 -53 6 -17 -3 -33 -1 -36 4 -7 12 -172 10 -179 -2 -3 -5 -15 -10
-26 -10 -11 0 -17 5 -14 10 4 6 -7 10 -27 10 -25 0 -29 -3 -18 -10 13 -8 11
-11 -7 -16 -14 -4 -23 -14 -23 -25 0 -22 11 -24 29 -6 10 10 10 7 0 -15 -14
-32 -47 -45 -111 -47 l-48 -2 -2 38 c-1 37 -1 37 -5 6 -4 -30 -7 -33 -39 -33
-30 0 -34 3 -34 25 0 18 4 23 16 18 13 -5 13 -7 2 -14 -9 -6 -7 -9 10 -9 18 0
22 6 22 30 0 23 -4 30 -20 30 -11 0 -20 -6 -20 -12 0 -10 -2 -10 -9 0 -6 10
-20 11 -61 4 -28 -5 -60 -7 -71 -5 -16 4 -19 0 -18 -23 1 -24 2 -25 7 -9 6 17
17 20 65 22 56 2 57 2 57 -26 0 -28 -22 -47 -40 -36 -17 10 -112 7 -123 -4 -8
-8 -6 -11 9 -12 10 -1 -3 -5 -31 -10 -36 -6 -53 -5 -60 4 -6 8 -22 10 -45 6
l-35 -6 40 -3 c22 -1 32 -4 23 -7 -9 -2 -20 -13 -23 -24 -4 -12 -13 -18 -21
-15 -13 5 -19 -6 -15 -28 3 -13 -20 -26 -46 -26 -16 0 -20 4 -16 20 5 19 7 20
23 5 11 -10 21 -12 24 -7 3 6 -1 12 -9 16 -20 7 -19 45 3 70 15 18 15 19 0 8
-19 -15 -11 -21 -99 83 -28 33 -65 79 -82 103 -29 40 -34 43 -67 38 -19 -3
-46 -6 -60 -7 -24 -1 -23 -2 5 -10 25 -7 22 -8 -17 -5 -27 2 -49 -1 -51 -7 -5
-16 -123 -22 -132 -7 -5 9 -4 11 3 6 20 -12 14 7 -28 93 -22 45 -40 84 -40 87
0 16 -52 114 -74 141 -21 25 -23 32 -11 37 8 3 15 10 15 16 0 6 -5 8 -12 4 -8
-5 -8 -3 -2 7 10 16 13 60 3 54 -3 -3 -17 7 -29 20 -13 14 -19 25 -13 25 6 0
16 -7 23 -15 20 -24 25 -10 26 76 1 87 -1 92 -61 129 -24 15 -52 22 -83 22
-43 1 -50 4 -77 39 -16 21 -40 51 -53 66 -13 16 -34 48 -47 73 -43 82 -93 152
-98 138 -3 -7 -6 -3 -6 8 -1 21 -17 33 -54 41 -12 2 -16 -1 -11 -8 5 -9 -1
-10 -20 -5 -15 4 -26 2 -26 -4 0 -5 8 -11 18 -11 17 -1 23 -1 44 4 7 1 12 -3
13 -10 0 -6 4 -15 9 -20 5 -5 6 -3 2 5 -4 6 -5 12 -2 12 3 0 10 -8 15 -19 9
-15 7 -18 -7 -17 -13 1 -16 -6 -14 -33 2 -26 -1 -32 -13 -27 -8 3 -15 1 -15
-3 0 -5 7 -11 15 -15 9 -3 15 -18 15 -36 0 -16 3 -30 8 -30 4 0 7 -30 8 -67
l0 -68 -39 -2 c-22 0 -44 -6 -51 -13 -8 -8 -6 -9 8 -4 17 7 19 4 13 -28 -3
-23 -1 -35 6 -35 7 0 13 14 14 30 3 36 20 49 46 36 25 -14 18 -41 -13 -51 -24
-7 -24 -8 3 -4 46 6 30 -25 -26 -49 -48 -20 -57 -19 -57 7 0 20 -1 20 -18 5
-10 -10 -21 -14 -25 -11 -3 3 -14 1 -24 -6 -16 -10 -16 -11 5 -7 25 6 31 -17
6 -27 -13 -5 -14 -8 -1 -20 21 -21 10 -71 -18 -84 -23 -10 -23 -9 -23 34 0 24
3 44 6 44 4 0 6 106 5 235 0 129 3 233 7 230 4 -3 13 1 19 9 12 15 51 10 51
-6 0 -5 -4 -6 -10 -3 -6 4 -10 -23 -10 -73 0 -77 1 -80 25 -86 14 -4 25 -11
25 -17 0 -6 5 -7 10 -4 6 3 10 -4 10 -16 0 -26 14 -16 24 18 6 17 3 20 -12 16
-26 -6 -38 24 -13 32 11 3 21 14 24 25 4 14 -4 22 -33 34 -20 8 -40 22 -44 32
-8 20 -8 21 26 29 20 5 27 3 31 -12 3 -13 5 -10 6 8 1 23 -2 26 -24 21 -15 -2
-25 0 -25 7 0 6 -6 11 -14 11 -16 0 -29 27 -20 41 3 5 0 9 -7 9 -8 0 -8 4 1
15 11 13 8 15 -14 15 -14 0 -26 5 -26 10 0 13 -5 12 -77 -15z m37 -180 c0 -43
-3 -53 -14 -49 -20 8 -56 -13 -56 -32 0 -10 -6 -14 -14 -11 -8 3 -17 -1 -20
-9 -3 -9 -1 -12 4 -9 6 3 10 1 10 -5 0 -8 -7 -9 -17 -5 -10 4 -26 10 -35 12
-28 8 -23 52 8 63 16 7 23 14 18 22 -5 8 -1 7 10 -1 17 -14 17 -15 0 -28 -10
-7 -22 -13 -28 -13 -5 0 -7 -3 -3 -6 6 -7 107 38 107 48 0 3 -9 4 -20 1 -11
-3 -20 -1 -20 3 1 12 30 50 30 39 0 -5 7 1 16 13 8 12 17 22 20 22 2 0 4 -25
4 -55z m150 -37 c0 -6 -7 -5 -15 2 -8 7 -15 17 -15 22 0 6 7 5 15 -2 8 -7 15
-17 15 -22z m-170 -48 c0 -5 -7 -7 -15 -4 -8 4 -12 10 -9 15 6 11 24 2 24 -11z
m-163 -45 c-5 -5 -24 -11 -41 -11 -17 -1 -23 1 -13 3 9 2 15 9 12 14 -6 8 8
13 28 10 4 0 7 7 8 17 0 15 1 14 8 -3 4 -10 3 -24 -2 -30z m169 -41 c-4 -15
-14 -24 -26 -24 -11 0 -20 -6 -20 -14 0 -9 7 -12 20 -9 11 3 20 9 20 14 0 5 5
9 10 9 6 0 10 -35 10 -85 0 -72 -3 -88 -20 -105 -11 -11 -27 -20 -35 -20 -9 0
-35 -9 -57 -20 -23 -11 -43 -20 -45 -20 -2 0 -3 46 -3 103 0 61 -4 107 -11
114 -8 8 -4 15 12 27 41 28 59 16 59 -40 0 -17 -4 -22 -15 -18 -9 4 -15 0 -15
-9 0 -23 15 -28 36 -12 10 8 27 15 37 15 23 0 22 20 -1 20 -13 0 -22 12 -29
35 -11 34 -10 36 30 63 45 30 55 24 43 -24z m261 -26 c-3 -8 -6 -5 -6 6 -1 11
2 17 5 13 3 -3 4 -12 1 -19z m163 2 c0 -5 -4 -10 -10 -10 -5 0 -10 5 -10 10 0
6 5 10 10 10 6 0 10 -4 10 -10z m-589 -77 c0 -27 2 -74 4 -105 2 -36 0 -60 -7
-64 -7 -5 -9 -1 -5 9 9 23 -2 21 -30 -5 l-23 -21 -1 74 c0 41 -2 88 -5 104 -6
44 2 55 36 55 29 0 30 -1 31 -47z m539 27 c0 -5 -5 -10 -11 -10 -5 0 -7 5 -4
10 3 6 8 10 11 10 2 0 4 -4 4 -10z m-97 -31 c5 -3 2 -9 -7 -12 -12 -5 -16 0
-16 15 0 12 3 17 8 12 4 -5 11 -12 15 -15z m-580 -54 c-7 -42 3 -46 19 -7 l12
27 4 -38 c2 -29 -1 -42 -15 -53 -15 -11 -15 -13 -3 -14 9 0 16 -8 17 -18 1 -9
2 -22 3 -27 9 -41 -2 -62 -42 -85 -24 -13 -36 -26 -29 -28 7 -2 25 5 40 16
l27 20 10 -34 c11 -34 11 -34 -39 -62 -28 -15 -54 -26 -59 -24 -4 1 -8 -3 -8
-9 0 -5 -4 -8 -9 -5 -5 4 -11 0 -14 -6 -3 -7 -5 -4 -4 8 1 11 6 21 12 22 28 3
47 9 53 18 4 5 20 18 35 28 16 9 26 20 23 23 -3 3 -17 -2 -32 -12 -18 -11 -29
-14 -36 -7 -6 6 -17 8 -24 5 -8 -3 -14 0 -14 6 0 7 -8 20 -18 31 -17 19 -18
19 -30 -1 -12 -19 -11 -20 7 -14 16 5 21 2 21 -13 0 -22 -36 -72 -52 -72 -6 0
1 11 16 25 42 39 28 46 -16 7 -16 -13 -18 -13 -24 3 -4 10 -1 21 7 27 10 7 8
8 -8 5 -20 -4 -23 -1 -23 25 0 25 4 29 23 26 22 -3 24 3 12 33 -4 10 0 19 11
23 13 5 15 2 10 -17 -9 -39 4 -39 50 0 42 33 44 38 44 87 0 29 5 57 12 64 7 7
8 12 2 12 -6 0 -11 7 -11 15 0 8 4 12 9 9 4 -3 11 2 14 10 11 28 23 7 17 -29z
m438 -35 c5 0 9 4 9 9 0 5 14 14 31 20 39 13 39 13 39 0 0 -16 -26 -39 -45
-39 -12 0 -15 -6 -10 -20 5 -15 0 -22 -20 -30 -39 -15 -47 -12 -33 9 7 11 16
17 20 15 4 -3 8 2 8 11 0 9 -4 14 -9 11 -13 -8 -21 18 -13 46 7 22 7 22 10 -4
2 -16 8 -28 13 -28z m109 46 c0 -3 -4 -8 -10 -11 -5 -3 -10 -1 -10 4 0 6 5 11
10 11 6 0 10 -2 10 -4z m345 -6 c3 -5 1 -10 -4 -10 -6 0 -11 5 -11 10 0 6 2
10 4 10 3 0 8 -4 11 -10z m-587 -109 c-1 -15 2 -33 5 -38 4 -6 -12 -17 -34
-26 -37 -14 -39 -14 -37 1 4 21 -38 19 -62 -3 -14 -13 -16 -11 -18 10 -2 27
14 39 88 67 60 22 59 22 58 -11z m552 1 c0 -4 -15 -9 -32 -10 -18 -2 -37 -7
-42 -12 -13 -13 -26 -13 -26 0 0 5 15 14 33 19 41 12 67 13 67 3z m74 -31 c18
-20 16 -58 -3 -47 -5 4 -12 0 -14 -6 -3 -7 -6 -3 -6 9 -1 24 -41 54 -41 32 0
-7 -2 -10 -5 -7 -3 2 1 16 7 30 14 29 29 26 62 -11z m-817 -4 c-19 -8 -26 -16
-22 -27 5 -12 4 -12 -6 -3 -16 16 2 38 33 40 21 0 20 -1 -5 -10z m710 -2 c0
-8 -4 -12 -8 -9 -4 2 -10 -2 -12 -8 -4 -8 -6 -7 -6 4 -1 9 5 19 12 21 6 3 12
6 13 6 0 1 1 -6 1 -14z m-707 -84 c-6 -11 -18 -25 -28 -30 -15 -8 -17 -5 -14
30 3 25 9 39 18 39 8 0 18 8 22 18 6 14 8 12 10 -10 2 -15 -2 -36 -8 -47z
m674 37 c-3 -4 -11 -8 -17 -7 -9 0 -9 2 0 5 7 3 9 13 6 22 -4 14 -3 14 5 2 6
-8 8 -18 6 -22z m104 16 c-2 -8 -7 -15 -13 -16 -5 0 -19 -5 -30 -10 -16 -8
-15 -5 5 15 29 30 43 34 38 11z m-67 -17 c-6 -8 -8 -17 -5 -20 4 -3 6 -91 5
-194 -2 -181 -5 -202 -33 -203 -4 0 -7 83 -8 185 0 101 -3 191 -6 199 -3 9 3
17 15 21 12 3 21 11 21 16 0 5 5 9 11 9 8 0 9 -4 0 -13z m-121 -45 c0 -15 2
-15 11 -2 9 13 10 13 6 0 -4 -16 -45 -15 -61 1 -16 15 3 23 21 8 15 -12 16
-12 10 4 -4 11 -3 16 3 12 6 -3 10 -14 10 -23z m147 -4 c-3 -8 -6 -5 -6 6 -1
11 2 17 5 13 3 -3 4 -12 1 -19z m-1078 -62 c-9 -8 -10 -7 -5 7 3 10 7 24 7 30
1 7 3 4 6 -7 3 -10 -1 -23 -8 -30z m188 18 c-9 -10 -47 -12 -42 -3 4 5 11 7
16 4 5 -4 9 -1 9 5 0 6 5 8 11 5 6 -4 8 -9 6 -11z m968 -15 c-4 -5 -2 -9 3 -9
7 0 16 -14 40 -62 2 -5 0 -8 -5 -8 -4 0 -14 14 -21 30 -8 17 -18 28 -23 24 -5
-3 -9 7 -9 21 0 15 4 24 10 20 6 -4 8 -11 5 -16z m-514 -13 c-7 -8 -10 -20 -6
-26 3 -5 2 -10 -3 -10 -18 0 -20 13 -5 36 9 14 18 22 21 20 3 -3 -1 -12 -7
-20z m39 -1 c-7 -9 -15 -13 -19 -10 -3 3 1 10 9 15 21 14 24 12 10 -5z m-80
-50 c0 -8 -8 -15 -17 -15 -17 -1 -17 -1 0 -11 23 -13 22 -25 -3 -25 -15 0 -20
7 -20 26 0 15 3 30 7 33 12 13 33 7 33 -8z m-523 -10 c0 -8 -4 -12 -9 -9 -5 3
-6 10 -3 15 9 13 12 11 12 -6z m43 11 c0 -11 -19 -15 -25 -6 -3 5 1 10 9 10 9
0 16 -2 16 -4z m830 -6 c0 -5 -5 -12 -10 -15 -14 -9 -2 -25 19 -25 15 0 17
-12 17 -108 -1 -87 -4 -112 -18 -125 -9 -9 -18 -20 -20 -25 -3 -7 -144 -52
-163 -52 -4 0 -4 15 -1 34 4 20 2 37 -4 41 -9 6 -14 -19 -11 -56 1 -11 -11
-20 -41 -27 -23 -6 -44 -9 -46 -7 -3 2 -4 50 -3 107 2 76 -1 100 -9 92 -7 -7
-10 -47 -8 -113 2 -55 0 -101 -4 -101 -34 0 -38 12 -38 125 l0 113 28 6 c17 4
42 -1 70 -14 49 -24 54 -35 12 -27 -28 6 -29 5 -18 -13 8 -12 19 -18 30 -14
13 4 17 -2 20 -28 l4 -33 7 30 c4 17 12 43 17 59 6 19 6 34 0 41 -16 19 26 87
71 116 39 25 99 37 99 19z m160 -19 c0 -10 -30 -24 -37 -17 -3 3 -2 9 2 15 8
13 35 15 35 2z m-1050 -10 c0 -6 -4 -13 -10 -16 -5 -3 -10 1 -10 9 0 9 5 16
10 16 6 0 10 -4 10 -9z m1162 -33 c19 -44 17 -58 -6 -39 -8 6 -12 21 -9 31 3
11 1 20 -5 20 -5 0 -12 7 -16 15 -3 8 0 15 7 15 7 0 20 -19 29 -42z m-1209 12
c-3 -11 -9 -23 -14 -26 -10 -6 -12 29 -2 39 13 13 21 7 16 -13z m1097 0 c0 -5
-2 -10 -4 -10 -3 0 -8 5 -11 10 -3 6 -1 10 4 10 6 0 11 -4 11 -10z m-1224 -28
c-8 -9 -18 -13 -22 -10 -8 9 19 37 29 31 5 -3 2 -12 -7 -21z m712 0 c2 -7 -2
-10 -12 -6 -9 3 -16 1 -16 -5 0 -6 6 -11 13 -11 6 0 13 -13 14 -29 1 -21 -3
-30 -17 -34 -18 -5 -20 0 -20 50 0 45 3 54 17 51 9 -2 18 -9 21 -16z m-638
-10 c0 -10 -13 -28 -30 -40 -34 -26 -48 -29 -26 -6 9 8 16 23 16 33 0 21 9 31
27 31 7 0 13 -8 13 -18z m1149 -40 c0 -11 -3 -12 -6 -4 -2 6 -12 12 -21 12
-14 0 -15 2 -2 9 18 12 30 5 29 -17z m31 8 c0 -5 -5 -10 -11 -10 -5 0 -7 5 -4
10 3 6 8 10 11 10 2 0 4 -4 4 -10z m155 0 c8 -13 -5 -13 -25 0 -13 8 -13 10 2
10 9 0 20 -4 23 -10z m-1045 -10 c-10 -6 -11 -10 -2 -10 17 0 15 -27 -3 -34
-11 -4 -15 2 -15 24 0 22 5 30 18 30 14 0 15 -2 2 -10z m1040 -99 c0 -8 -112
-31 -119 -25 -2 2 17 9 43 16 48 13 58 30 29 47 -17 10 -17 10 2 11 14 0 16 3
7 12 -8 8 -15 8 -29 -3 -16 -12 -17 -12 -6 2 7 9 10 19 6 23 -4 4 -1 11 7 16
10 6 19 -4 37 -42 13 -27 23 -53 23 -57z m-758 -38 c2 -74 -1 -122 -8 -128 -5
-5 -13 -17 -16 -25 -5 -13 -78 -45 -84 -37 -7 10 -11 117 -3 117 5 0 9 11 9
25 0 14 5 25 10 25 7 0 7 7 0 20 -8 15 -8 30 0 56 15 44 35 64 65 64 23 0 24
-1 27 -117z m628 113 c0 -2 -9 -6 -20 -9 -11 -3 -18 -1 -14 4 5 9 34 13 34 5z
m-900 -60 c0 -21 -6 -36 -15 -40 -12 -4 -15 2 -13 27 2 26 12 46 26 47 1 0 2
-15 2 -34z m340 8 c0 -17 -4 -21 -20 -17 -30 8 -26 40 5 40 9 0 15 -9 15 -23z
m510 -9 c0 -8 -7 -15 -15 -15 -9 0 -12 6 -9 15 4 8 10 15 15 15 5 0 9 -7 9
-15z m47 -15 c1 -12 -4 -20 -13 -20 -8 0 -17 -7 -20 -15 -5 -11 -11 -12 -25
-4 -24 12 -14 32 12 24 15 -5 19 -1 19 14 0 27 25 28 27 1z m-558 -74 c-1 -54
-4 -65 -19 -69 -16 -4 -19 1 -18 34 0 29 5 39 17 40 14 0 14 1 1 7 -8 4 -16
17 -18 30 -2 16 2 22 17 22 18 0 20 -6 20 -64z m446 54 c-3 -5 -14 -10 -23 -9
-14 0 -13 2 3 9 27 11 27 11 20 0z m-785 -39 c0 -10 -7 -21 -15 -25 -11 -4
-14 1 -13 19 3 29 28 34 28 6z m32 -152 c-3 -54 -5 -57 -32 -61 -27 -4 -28 -3
-28 39 0 45 14 65 29 42 5 -9 9 15 9 62 0 42 3 79 8 83 9 10 18 -93 14 -165z
m68 163 c30 -14 21 -32 -13 -28 -17 2 -31 6 -29 10 1 3 2 11 2 16 0 11 17 12
40 2z m1325 -42 c10 -11 16 -20 13 -20 -3 0 -13 9 -23 20 -10 11 -16 20 -13
20 3 0 13 -9 23 -20z m870 -10 c-3 -5 1 -11 7 -13 8 -3 6 -6 -4 -6 -10 -1 -18
4 -18 9 0 6 -9 10 -20 10 -11 0 -20 -7 -20 -15 0 -8 -4 -15 -10 -15 -5 0 -10
-4 -10 -10 0 -5 16 -7 36 -5 20 3 33 1 29 -4 -3 -5 0 -11 7 -14 7 -2 4 -3 -7
-1 -11 2 -32 4 -47 4 -25 0 -28 4 -28 33 0 19 2 36 4 38 8 8 86 -3 81 -11z
m-2346 -87 c0 -54 -3 -102 -6 -106 -9 -14 -43 25 -43 49 0 12 7 29 15 37 12
13 12 17 0 27 -7 6 -12 17 -10 23 2 7 6 24 9 40 4 15 13 27 21 27 13 0 15 -17
14 -97z m51 57 c0 -29 -4 -40 -15 -40 -18 0 -20 16 -4 26 8 4 7 9 -2 14 -10 7
-10 11 0 24 19 23 21 21 21 -24z m780 17 c0 -14 -5 -17 -22 -11 -13 4 -26 12
-30 18 -5 7 -8 6 -8 -3 0 -8 -3 -12 -6 -8 -12 12 5 22 35 22 23 0 31 -5 31
-18z m-663 -14 c4 -9 1 -19 -5 -21 -17 -5 -15 -32 3 -32 9 0 15 -9 15 -25 0
-16 -6 -25 -16 -25 -8 0 -13 4 -10 8 3 5 -4 16 -15 26 -20 17 -21 17 -15 -2 4
-12 1 -19 -8 -19 -12 0 -15 13 -14 54 1 51 2 53 30 53 18 0 31 -6 35 -17z
m2396 11 c10 -10 -17 -44 -35 -44 -21 0 -25 36 -5 43 18 8 33 8 40 1z m-73
-24 c6 -11 8 -20 6 -20 -3 0 -10 9 -16 20 -6 11 -8 20 -6 20 3 0 10 -9 16 -20z
m-75 -10 c3 -6 -1 -7 -9 -4 -18 7 -21 14 -7 14 6 0 13 -4 16 -10z m230 -57
c-6 -17 15 -28 25 -13 5 9 9 9 14 1 4 -6 11 -9 16 -6 5 3 12 1 15 -5 4 -6 3
-10 -2 -9 -4 1 -17 1 -28 0 -16 -1 -17 -3 -5 -11 11 -7 9 -11 -12 -19 -47 -18
-37 -26 33 -28 85 -2 108 -8 89 -26 -10 -9 -14 -9 -17 2 -5 11 -7 11 -14 0 -7
-12 -9 -12 -9 0 0 11 -4 10 -14 -4 -7 -10 -24 -20 -37 -22 -13 -2 -26 -7 -29
-11 -3 -4 -18 -9 -35 -9 -29 -2 -29 -1 -6 8 32 13 25 17 -38 23 -60 5 -64 7
-55 29 4 10 21 17 47 19 33 2 41 7 39 20 -2 13 2 16 15 13 10 -3 5 1 -11 8
-16 8 -37 31 -47 51 -9 20 -13 34 -8 30 5 -3 9 0 9 6 0 5 16 0 35 -12 19 -13
33 -28 30 -35z m-2176 12 c-12 -19 -25 -35 -30 -35 -18 0 -3 53 17 61 33 13
34 10 13 -26z m-99 -20 c0 -19 -5 -35 -11 -35 -5 0 -7 6 -4 13 4 6 0 4 -8 -5
-8 -10 -17 -15 -21 -11 -3 3 2 15 11 26 10 11 12 17 6 13 -18 -10 -16 -1 3 18
22 22 24 21 24 -19z m40 5 c0 -16 -4 -30 -10 -30 -5 0 -10 14 -10 30 0 17 5
30 10 30 6 0 10 -13 10 -30z m1053 23 c2 -5 -2 -22 -8 -40 -9 -27 -13 -30 -28
-18 -21 15 -12 49 10 40 11 -3 13 -1 9 10 -5 15 9 22 17 8z m127 -26 c0 -23
-2 -22 -19 10 -10 19 -9 22 4 17 8 -4 15 -15 15 -27z m-190 0 c0 -8 -18 -12
-49 -12 -62 0 -76 12 -25 20 22 4 44 8 49 9 14 4 25 -3 25 -17z m-1573 -27
c-3 -27 -1 -45 9 -54 11 -12 11 -15 -2 -20 -11 -4 -15 -14 -11 -31 2 -14 0
-28 -4 -31 -10 -6 -12 136 -3 160 11 29 17 17 11 -24z m2611 33 c-10 -2 -26
-2 -35 0 -10 3 -2 5 17 5 19 0 27 -2 18 -5z m772 -3 c18 -12 2 -12 -25 0 -13
6 -15 9 -5 9 8 0 22 -4 30 -9z m-875 -10 c-3 -5 -11 -10 -16 -10 -6 0 -7 5 -4
10 3 6 11 10 16 10 6 0 7 -4 4 -10z m-599 -15 c14 -13 12 -15 -15 -15 -23 0
-29 4 -25 15 4 8 10 15 16 15 5 0 16 -7 24 -15z m638 -21 c5 -12 2 -12 -15 -3
-19 10 -20 9 -10 -10 10 -17 9 -20 -4 -15 -15 6 -21 35 -9 47 9 9 32 -3 38
-19z m-2574 -53 c0 -55 -3 -70 -16 -75 -15 -6 -16 1 -10 60 7 64 12 84 22 84
2 0 4 -31 4 -69z m350 65 c0 -2 -7 -7 -16 -10 -8 -3 -12 -2 -9 4 6 10 25 14
25 6z m1187 -2 c-3 -3 -12 -4 -19 -1 -8 3 -5 6 6 6 11 1 17 -2 13 -5z m1194
-27 c-9 -25 -50 -34 -78 -18 -15 9 -13 10 10 5 30 -7 72 20 60 39 -3 6 -1 7 5
3 7 -4 8 -15 3 -29z m-2311 16 c-8 -3 -26 -10 -40 -15 -18 -7 -21 -11 -11 -17
8 -5 10 -14 7 -20 -12 -19 -28 -12 -24 11 3 23 40 48 68 47 13 -1 13 -1 0 -6z
m30 -23 c0 -5 -5 -10 -11 -10 -5 0 -7 5 -4 10 3 6 8 10 11 10 2 0 4 -4 4 -10z
m1957 4 c-3 -3 -12 -4 -19 -1 -8 3 -5 6 6 6 11 1 17 -2 13 -5z m-753 -20 c3
-8 2 -12 -4 -9 -6 3 -10 10 -10 16 0 14 7 11 14 -7z m2020 -6 c-3 -5 -12 -4
-20 3 -19 16 -18 18 6 12 11 -3 17 -9 14 -15z m-3414 -26 c1 -24 2 -25 11 -9
6 10 9 24 6 31 -4 10 2 10 29 2 19 -6 34 -13 34 -17 0 -3 -34 -19 -75 -36
l-75 -32 0 39 c0 33 4 40 28 48 34 12 42 7 42 -26z m-163 2 c2 -5 -10 -15 -27
-21 -25 -9 -30 -9 -30 3 0 9 4 13 9 10 5 -3 12 1 15 10 6 16 27 15 33 -2z
m1353 2 c0 -2 -8 -10 -17 -17 -16 -13 -17 -12 -4 4 13 16 21 21 21 13z m1110
1 c0 -2 -10 -12 -22 -23 l-23 -19 19 23 c18 21 26 27 26 19z m1060 -12 c7 -9
8 -15 2 -15 -5 0 -12 7 -16 15 -3 8 -4 15 -2 15 2 0 9 -7 16 -15z m-2655 -5
c-19 -7 -19 -8 -2 -15 14 -6 16 -10 6 -16 -18 -10 -29 -2 -29 22 0 13 7 19 23
18 21 0 21 -1 2 -9z m2480 -8 c-3 -3 -11 0 -18 7 -9 10 -8 11 6 5 10 -3 15 -9
12 -12z m-1737 -34 c-3 -15 36 -16 117 -3 60 9 56 -2 -6 -15 l-44 -9 58 2 c41
1 57 -2 57 -11 0 -13 -6 -16 -52 -26 -22 -5 -28 -3 -29 11 -1 16 -2 16 -6 1
-3 -10 -21 -21 -46 -26 -23 -6 -35 -10 -25 -11 11 -1 22 -20 33 -58 9 -32 20
-65 23 -73 8 -21 9 -71 1 -62 -10 11 -79 199 -79 216 0 8 -5 18 -10 21 -6 4
-8 10 -5 15 3 5 -1 20 -10 33 -8 13 -12 26 -9 30 9 9 35 -20 32 -35z m1032 33
c0 -11 -52 -21 -65 -13 -5 4 4 10 20 13 44 10 45 10 45 0z m44 -16 c-10 -6
-14 -17 -10 -23 9 -15 -33 -27 -47 -13 -8 8 -5 11 11 11 17 0 22 6 22 24 0 19
4 23 20 19 19 -5 19 -6 4 -18z m241 9 c33 -4 71 -8 85 -9 38 -3 39 -4 50 -25
13 -24 3 -70 -16 -70 -8 0 -14 -5 -14 -10 0 -7 -6 -7 -19 -1 -10 6 -21 8 -24
5 -3 -3 -8 0 -12 6 -3 6 -3 9 2 8 4 -1 18 3 29 10 12 6 24 8 28 5 3 -3 6 1 6
11 0 18 -39 37 -85 41 -16 1 -43 6 -60 10 -27 7 -29 7 -17 -8 8 -9 11 -21 8
-26 -4 -5 2 -14 11 -20 16 -9 16 -10 -3 -11 -15 0 -26 10 -34 30 -9 21 -19 30
-36 30 -12 0 -26 5 -29 10 -3 6 3 10 14 10 12 0 21 5 21 11 0 6 8 8 18 5 9 -3
44 -8 77 -12z m675 -9 c0 -8 -3 -16 -7 -18 -5 -3 -8 5 -8 18 0 13 3 21 8 18 4
-2 7 -10 7 -18z m50 19 c0 -8 -19 -13 -24 -6 -3 5 1 9 9 9 8 0 15 -2 15 -3z
m-3621 -26 c-9 -16 -14 -19 -17 -9 -2 7 2 17 9 22 20 13 21 11 8 -13z m888 16
c-3 -3 -12 -4 -19 -1 -8 3 -5 6 6 6 11 1 17 -2 13 -5z m134 -11 c13 -16 12
-17 -3 -4 -17 13 -22 21 -14 21 2 0 10 -8 17 -17z m-28 -45 c-6 -11 -31 -10
-38 2 -4 6 1 7 12 3 16 -6 16 -4 -2 17 l-20 24 26 -20 c15 -10 25 -22 22 -26z
m1227 32 c0 -13 -60 -13 -80 0 -11 7 -2 10 33 10 26 0 47 -4 47 -10z m75 0
c16 -7 13 -9 -17 -9 -21 -1 -38 4 -38 9 0 12 27 12 55 0z m200 0 c4 -6 11 -8
16 -5 5 4 30 8 55 10 41 3 44 2 28 -10 -23 -17 -154 -21 -154 -4 0 5 4 8 9 4
5 -3 12 -1 16 5 3 5 10 10 15 10 5 0 12 -5 15 -10z m251 -31 c-4 -26 -3 -38 4
-34 5 3 10 17 10 31 0 54 71 9 75 -49 1 -11 6 -22 12 -24 7 -3 9 4 6 17 -4 16
-2 19 11 14 9 -3 16 -10 16 -15 0 -5 10 -9 23 -9 18 0 19 2 7 10 -29 19 1 10
49 -15 27 -13 51 -21 55 -18 3 4 6 2 7 -3 2 -28 8 -67 14 -85 6 -17 4 -21 -8
-16 -18 7 -87 -13 -87 -25 0 -4 5 -8 10 -8 6 0 10 -18 10 -41 0 -51 -21 -48
-26 4 -4 51 -10 57 -44 50 -21 -4 -31 -1 -35 9 -4 9 -21 15 -48 15 l-42 2 45
-13 c45 -13 42 -20 -10 -29 -20 -4 -19 -5 8 -6 24 -1 32 -6 32 -20 0 -10 -7
-22 -16 -25 -35 -13 -51 -6 -66 32 -11 28 -23 39 -50 48 -19 5 -44 7 -54 3
-24 -8 -35 9 -21 32 9 14 7 22 -6 37 -42 46 -6 120 52 107 22 -5 36 -2 47 9
15 16 15 17 -6 20 -25 3 -3 29 29 35 2 1 1 -17 -3 -40z m346 27 c3 2 13 -7 22
-21 16 -25 16 -25 -11 -26 -28 -1 -28 -1 5 -10 26 -8 32 -14 32 -38 0 -16 -6
-32 -12 -34 -8 -3 -5 -6 5 -6 11 -1 15 -6 11 -12 -8 -14 -91 -6 -107 11 -9 9
-5 11 18 10 44 -3 54 1 20 9 -26 6 -30 10 -27 36 2 17 4 44 5 62 2 25 5 29 18
22 9 -4 19 -6 21 -3z m-3116 -10 c18 -18 18 -22 -2 -30 -12 -4 -15 -2 -11 9 4
8 -1 19 -11 24 -11 7 -12 10 -4 11 7 0 20 -6 28 -14z m1832 7 c-10 -2 -26 -2
-35 0 -10 3 -2 5 17 5 19 0 27 -2 18 -5z m590 0 c-16 -2 -40 -2 -55 0 -16 2
-3 4 27 4 30 0 43 -2 28 -4z m292 3 c0 -11 -19 -15 -25 -6 -3 5 1 10 9 10 9 0
16 -2 16 -4z m635 -7 c-4 -6 1 -17 11 -25 18 -15 18 -15 1 -10 -10 3 -23 6
-28 6 -6 0 -5 8 1 20 6 11 13 20 16 20 3 0 2 -5 -1 -11z m-1297 -5 c42 -8 31
-34 -14 -34 -27 0 -34 4 -34 20 0 22 3 23 48 14z m1170 -10 c20 -8 38 -15 40
-15 1 1 14 1 30 1 19 0 23 -3 13 -9 -17 -11 -5 -17 38 -20 19 -1 40 -6 48 -12
7 -6 29 -15 50 -20 56 -14 67 -17 73 -19 3 -1 8 -2 11 -2 4 1 9 -12 11 -27 l4
-29 -43 16 c-49 19 -57 15 -47 -23 6 -22 8 -25 16 -12 5 9 15 14 24 10 12 -5
13 -7 3 -14 -11 -6 -10 -15 4 -44 21 -44 24 -93 4 -77 -7 6 -19 7 -26 3 -9 -6
-6 -10 13 -15 21 -5 25 -12 23 -36 -2 -25 -5 -29 -22 -23 -18 5 -33 8 -73 12
-7 0 -11 5 -8 10 3 4 -5 6 -17 4 -36 -6 -48 10 -48 63 -1 27 1 54 3 59 1 6 -1
12 -7 15 -5 3 -14 -8 -20 -25 -5 -16 -16 -36 -23 -43 -14 -16 -7 -33 12 -26 7
3 13 -2 13 -10 0 -12 -7 -14 -26 -9 -34 8 -33 5 -20 41 6 17 9 37 7 44 -2 6
-10 -8 -17 -33 -12 -44 -14 -45 -52 -44 -21 0 -39 5 -40 10 0 6 -1 30 -1 55 0
26 -2 34 -5 19 -4 -25 -7 -27 -46 -23 l-42 4 43 -11 c52 -13 54 -27 5 -31 -37
-3 -38 -5 -39 -41 0 -33 -17 -68 -27 -56 -3 2 1 44 8 93 12 91 11 120 -9 145
-9 12 -7 13 14 8 14 -4 42 -7 63 -7 35 0 38 -2 32 -22 -5 -21 -4 -21 17 5 28
32 67 36 93 7 10 -11 22 -17 28 -13 6 3 7 1 3 -5 -11 -19 3 -35 19 -22 8 7 13
29 12 56 -1 28 3 48 12 53 9 6 10 11 2 15 -6 4 -11 2 -11 -5 0 -8 -4 -8 -12
-2 -7 6 -38 13 -68 17 -39 5 -63 15 -82 33 -47 45 -29 56 40 27z m-2523 -4 c3
-5 2 -10 -4 -10 -5 0 -13 5 -16 10 -3 6 -2 10 4 10 5 0 13 -4 16 -10z m1175
-10 c0 -16 -7 -20 -34 -20 -19 0 -38 5 -41 10 -11 18 5 30 41 30 27 0 34 -4
34 -20z m120 11 c0 -14 -11 -19 -55 -22 -32 -3 -40 0 -43 14 -3 14 4 17 47 17
28 0 51 -4 51 -9z m250 5 c0 -3 -4 -8 -10 -11 -5 -3 -10 -1 -10 4 0 6 5 11 10
11 6 0 10 -2 10 -4z m-2333 -38 c-3 -7 -5 -2 -5 12 0 14 2 19 5 13 2 -7 2 -19
0 -25z m1011 -150 c2 -101 7 -201 12 -223 6 -30 8 -9 7 79 -1 81 2 121 10 123
14 5 19 -263 4 -269 -5 -1 -3 -9 5 -16 12 -11 16 -9 23 9 l8 23 5 -22 c4 -14
1 -23 -11 -27 -21 -6 -37 -2 -33 9 2 5 -3 6 -11 3 -8 -3 -21 3 -30 14 -20 23
-27 23 -52 6 -16 -13 -15 -14 13 -9 21 3 32 0 32 -7 0 -7 -4 -9 -10 -6 -5 3
-19 1 -30 -5 -11 -6 -20 -7 -20 -3 -7 454 -6 479 16 475 12 -2 28 3 35 12 8 8
16 15 19 16 3 0 7 -82 8 -182z m2836 167 c3 -8 1 -15 -4 -15 -6 0 -10 7 -10
15 0 8 2 15 4 15 2 0 6 -7 10 -15z m-3789 -5 c-3 -5 -15 -15 -26 -20 -15 -8
-19 -7 -19 4 0 9 6 13 14 10 8 -3 17 -1 21 5 3 6 8 11 11 11 3 0 2 -4 -1 -10z
m2621 -17 c-2 -16 -5 -31 -5 -34 -2 -13 -31 -5 -31 9 0 8 6 12 14 9 10 -4 13
-1 9 9 -7 18 -28 18 -47 -2 -9 -8 -16 -11 -16 -5 0 5 5 13 10 16 6 4 8 11 5
16 -4 5 10 9 30 9 33 0 35 -2 31 -27z m31 5 c-3 -8 -6 -5 -6 6 -1 11 2 17 5
13 3 -3 4 -12 1 -19z m786 7 c4 -8 3 -16 -1 -19 -4 -3 -9 4 -9 15 -2 23 3 25
10 4z m53 0 c9 -8 11 -15 6 -15 -5 0 -15 7 -22 15 -7 8 -9 15 -6 15 4 0 14 -7
22 -15z m-3581 -15 c-2 -31 -15 -37 -15 -7 0 15 4 27 8 27 5 0 8 -9 7 -20z
m862 8 c22 -2 39 -6 37 -10 -2 -4 0 -9 6 -13 5 -3 10 -12 10 -20 0 -10 -9 -8
-37 6 -50 26 -88 24 -139 -6 -47 -28 -94 -96 -93 -136 0 -19 5 -13 24 26 17
36 24 44 24 28 1 -13 -3 -23 -7 -23 -5 0 -7 -13 -4 -30 4 -28 2 -30 -27 -30
-38 0 -39 12 -9 83 37 86 106 144 158 131 8 -2 34 -5 57 -6z m1207 -14 c3 -8
2 -12 -3 -9 -5 3 -12 1 -16 -5 -3 -5 -15 -10 -25 -10 -26 0 -15 28 13 33 12 2
23 5 23 6 1 0 5 -6 8 -15z m110 10 c9 -3 16 -10 16 -14 0 -15 -40 -22 -55 -10
-9 7 -15 8 -20 1 -4 -7 -11 -7 -19 2 -8 6 -12 15 -9 20 5 8 65 9 87 1z m-1081
-19 c-3 -9 -8 -14 -10 -11 -3 3 -2 9 2 15 9 16 15 13 8 -4z m821 -72 c4 -5 5
4 1 20 -7 26 -5 27 29 27 37 0 43 -8 27 -39 -6 -11 -24 -18 -49 -19 -32 -2
-44 2 -56 20 -11 15 -12 24 -5 29 6 3 2 9 -10 12 -32 8 -25 25 12 29 30 3 32
1 38 -34 3 -21 9 -41 13 -45z m74 75 c-7 -20 -68 -23 -68 -4 0 12 10 16 36 16
24 0 34 -4 32 -12z m328 -60 c-5 -3 -16 -4 -24 0 -11 4 -13 1 -7 -8 5 -9 4
-11 -4 -6 -6 4 -9 12 -5 17 3 6 -5 23 -17 37 l-24 27 28 -24 c30 -27 36 -19
10 13 -9 12 -1 5 18 -14 19 -19 30 -38 25 -42z m-1728 39 c-2 -12 -8 -22 -15
-22 -6 0 -15 -3 -19 -7 -4 -5 2 -8 14 -8 15 0 22 -6 22 -20 0 -11 -6 -20 -12
-20 -9 0 -10 -3 -2 -8 6 -4 10 -37 10 -79 -1 -58 -4 -73 -16 -73 -12 0 -12 -2
-2 -9 10 -6 14 -37 14 -116 0 -105 -5 -124 -35 -125 -11 0 -7 271 5 293 5 10
5 17 -1 17 -10 0 -14 117 -5 165 4 22 12 31 25 32 15 1 19 -3 17 -20z m55 -11
c-2 -3 -3 -13 -3 -21 0 -8 -8 -15 -17 -15 -15 0 -16 -2 -3 -10 11 -7 11 -10 2
-10 -7 0 -10 -4 -7 -10 3 -5 1 -10 -4 -10 -6 0 -11 18 -11 40 0 22 4 40 10 40
5 0 7 -7 4 -15 -4 -8 -1 -15 6 -15 6 0 8 5 5 10 -3 6 -1 10 6 10 6 0 1 10 -12
21 l-24 21 25 -15 c14 -8 24 -17 23 -21z m3077 21 c0 -8 -7 -14 -15 -14 -8 0
-15 6 -15 14 0 7 7 13 15 13 8 0 15 -6 15 -13z m-1900 -7 c0 -5 -9 -10 -19
-10 -11 0 -23 5 -26 10 -4 6 5 10 19 10 14 0 26 -4 26 -10z m1495 -32 c-3 -11
-7 -23 -11 -27 -4 -3 -4 2 -1 12 4 9 3 17 -1 17 -4 0 -8 9 -8 19 0 15 4 17 12
10 7 -6 11 -20 9 -31z m455 26 c0 -8 4 -13 9 -10 5 3 12 -2 15 -11 6 -14 9
-15 16 -4 5 10 8 6 7 -11 -2 -21 -5 -24 -19 -17 -9 5 -20 13 -23 19 -8 13 -75
-20 -75 -37 0 -7 7 -13 15 -13 8 0 15 -4 15 -10 0 -5 -7 -10 -15 -10 -8 0 -12
-6 -9 -14 3 -8 -2 -16 -13 -19 -13 -3 -11 -5 7 -6 34 -1 45 9 46 44 1 17 2 33
3 37 2 17 66 -22 72 -45 6 -24 6 -24 -23 -10 -16 8 -32 13 -34 10 -3 -3 4 -8
15 -12 12 -3 21 -13 21 -21 0 -8 -4 -12 -10 -9 -6 3 -10 -5 -10 -19 0 -13 5
-26 10 -28 6 -2 13 -19 15 -38 4 -28 -1 -39 -24 -61 -22 -19 -26 -30 -19 -42
5 -10 6 -23 1 -29 -5 -9 -9 -5 -14 12 -5 19 -7 13 -8 -24 l-1 -48 -37 7 c-21
3 -42 10 -47 15 -11 11 3 72 16 64 7 -4 8 13 3 52 -8 72 -8 66 -6 87 1 21 20
22 57 2 30 -15 26 -19 -15 -15 -14 1 -21 -2 -17 -9 12 -18 55 -12 66 9 8 15 6
24 -9 39 -11 11 -21 16 -23 12 -2 -5 -18 -6 -35 -4 -28 4 -33 10 -33 32 0 15
7 37 16 49 8 12 10 22 5 22 -6 0 -11 9 -11 20 0 11 4 20 9 20 5 0 17 3 27 7
12 4 15 3 10 -5 -4 -7 -1 -12 9 -12 11 0 14 6 9 25 -5 21 -3 25 15 25 12 0 21
-6 21 -16z m-1710 -17 c0 -21 -45 -58 -63 -52 -12 5 -14 12 -5 36 8 23 16 29
39 29 17 0 29 -5 29 -13z m126 -144 c-1 -152 -1 -153 22 -153 18 0 22 6 22 30
0 17 5 30 10 30 6 0 12 0 15 0 3 0 18 6 35 15 40 21 79 19 120 -6 84 -50 93
-74 61 -146 -19 -40 -21 -41 -66 -41 -26 1 -50 -3 -53 -8 -32 -47 -41 -54 -75
-56 -20 -2 -36 -7 -34 -11 1 -5 6 -8 10 -8 4 1 18 1 32 1 23 0 37 10 73 54 23
29 76 20 115 -19 22 -22 45 -35 61 -35 26 0 26 -1 26 -80 l0 -80 -47 0 c-25 0
-43 -3 -40 -6 4 -4 -6 -18 -21 -30 -33 -29 -20 -32 15 -4 31 24 78 26 87 4 13
-35 7 -39 -61 -37 -38 1 -102 3 -143 3 -51 1 -69 4 -55 10 19 8 19 9 -2 9 -12
1 -23 -5 -26 -11 -2 -7 -7 -10 -11 -6 -11 10 12 48 29 48 8 0 15 4 15 10 0 5
-6 7 -13 4 -20 -7 -34 34 -31 93 1 29 -2 51 -6 48 -5 -3 -10 -1 -12 4 -2 6
-34 6 -83 0 -44 -5 -143 -11 -220 -14 -565 -20 -713 -30 -949 -61 -434 -57
-998 -166 -1256 -241 -8 -2 -4 2 10 10 14 8 59 22 100 32 41 9 80 24 87 32 7
9 18 13 26 10 20 -8 235 48 217 56 -8 4 -1 4 17 1 18 -3 58 1 90 10 80 20 212
44 340 61 114 15 147 20 228 35 53 10 473 56 590 64 39 3 185 10 325 16 140 6
264 13 274 16 15 5 18 3 13 -10 -4 -10 -1 -16 7 -16 8 0 16 7 20 15 4 11 22
15 75 15 38 0 73 5 76 11 4 5 4 37 0 71 l-7 60 -30 -6 c-34 -7 -110 3 -104 13
3 4 36 6 75 6 41 0 71 4 71 10 0 6 -24 9 -59 7 l-60 -4 -3 134 c-2 73 -2 148
0 165 3 31 5 33 41 31 l38 -1 -1 -154z m-2247 134 c-34 -28 -99 -65 -99 -57 0
5 4 10 9 10 5 0 11 9 14 21 3 12 10 18 16 14 6 -3 21 1 33 9 12 9 24 13 27 11
2 -3 2 -7 0 -8z m1919 -19 c16 -27 16 -29 -6 -50 -14 -14 -22 -18 -22 -9 0 7
-11 26 -25 43 -33 39 -32 50 6 46 21 -2 36 -12 47 -30z m403 -11 c10 -18 6
-17 -20 7 -36 34 -39 41 -11 26 11 -6 25 -20 31 -33z m-189 -27 c-7 -12 -8
-20 -2 -20 5 0 10 -15 10 -32 l-1 -33 -14 33 c-8 17 -19 32 -25 32 -15 0 -12
21 7 42 22 25 43 7 25 -22z m-1587 20 c3 -5 1 -10 -4 -10 -6 0 -11 5 -11 10 0
6 2 10 4 10 3 0 8 -4 11 -10z m-672 -41 c-6 -6 -9 -1 -7 13 3 33 6 36 11 14 3
-10 1 -22 -4 -27z m2724 34 c-4 -3 1 -16 10 -27 18 -21 18 -21 -4 -2 -20 16
-23 36 -6 36 4 0 3 -3 0 -7z m1361 -92 c3 -10 0 -10 -18 -1 -12 6 -24 9 -27 6
-3 -3 7 -11 23 -17 27 -10 28 -12 9 -20 -19 -8 -19 -8 3 -15 12 -3 22 -13 22
-20 0 -17 -2 -17 -33 -3 -25 11 -42 64 -30 95 5 13 8 13 26 1 12 -8 23 -19 25
-26z m-1647 6 c-10 -9 -11 -8 -5 6 3 10 9 15 12 12 3 -3 0 -11 -7 -18z m632
-25 c3 -15 1 -35 -5 -45 -8 -17 -12 -17 -31 -4 -16 10 -23 26 -25 55 l-3 41
29 -10 c21 -7 32 -19 35 -37z m271 42 c25 -9 21 -76 -4 -92 -28 -17 -40 -7
-40 33 0 58 10 72 44 59z m-342 -49 c1 -24 0 -41 -3 -37 -11 13 -27 70 -22 76
14 14 21 3 25 -39z m1308 0 c0 -13 -4 -27 -10 -30 -6 -4 -10 8 -10 30 0 22 4
34 10 30 6 -3 10 -17 10 -30z m-3797 -12 c-4 -10 -9 -11 -16 -4 -5 5 -7 18 -3
28 6 14 9 15 16 4 4 -8 6 -21 3 -28z m2327 33 c0 -3 -4 -8 -10 -11 -5 -3 -10
-1 -10 4 0 6 5 11 10 11 6 0 10 -2 10 -4z m406 -10 c3 -8 4 -26 2 -40 -3 -25
-4 -24 -26 14 -22 40 -22 40 -2 40 11 0 23 -6 26 -14z m1129 4 c-3 -5 -12 -10
-18 -10 -7 0 -6 4 3 10 19 12 23 12 15 0z m-1145 -72 c0 -9 -4 -19 -9 -23 -14
-8 -36 34 -36 67 l-1 28 23 -28 c12 -15 22 -35 23 -44z m1038 12 c7 0 12 -7
12 -15 0 -26 -45 3 -58 38 l-11 32 22 -27 c13 -16 28 -28 35 -28z m-4393 30
c-3 -5 -11 -10 -16 -10 -6 0 -7 5 -4 10 3 6 11 10 16 10 6 0 7 -4 4 -10z m980
-31 c-3 -5 1 -6 10 -3 10 4 15 2 13 -7 -2 -8 3 -13 10 -11 6 1 12 -5 12 -14 0
-8 -4 -13 -9 -10 -5 3 -11 -1 -15 -9 -3 -8 0 -14 6 -12 6 1 12 -3 15 -9 2 -7
-5 -10 -21 -7 -16 3 -23 10 -19 19 4 10 0 12 -12 7 -15 -5 -17 -2 -12 18 4 13
7 32 7 42 0 10 5 15 10 12 6 -4 8 -11 5 -16z m2610 6 c0 -5 -11 -11 -23 -13
-22 -3 -22 -5 9 -21 34 -18 58 -46 48 -56 -11 -10 -39 7 -37 23 2 8 -2 17 -9
19 -7 3 -9 -3 -6 -16 4 -17 1 -21 -21 -21 -16 0 -26 5 -26 15 0 8 8 15 18 15
10 0 13 3 6 8 -6 4 -13 20 -16 35 -5 26 -3 28 26 25 17 -2 31 -7 31 -13z m892
-22 c-3 -10 -5 -4 -5 12 0 17 2 24 5 18 2 -7 2 -21 0 -30z m-3547 -28 c0 -49
12 -73 22 -44 2 7 16 4 38 -10 19 -11 28 -21 20 -21 -12 -1 -12 -3 2 -14 10
-7 15 -15 13 -18 -3 -3 2 -21 10 -41 17 -40 15 -42 -37 -51 -31 -6 -38 -4 -38
9 0 8 7 15 15 15 8 0 15 5 15 10 0 6 -7 10 -15 10 -9 0 -15 9 -15 24 0 19 4
23 20 19 29 -8 24 4 -9 21 -26 14 -30 14 -41 1 -9 -11 -9 -15 -1 -15 6 0 11
-5 11 -11 0 -5 -3 -8 -7 -6 -5 3 -8 -8 -9 -24 -1 -16 2 -29 6 -29 4 0 10 -9
13 -20 4 -15 0 -20 -14 -20 -19 0 -20 7 -18 135 0 74 5 135 10 135 5 0 9 -25
9 -55z m1394 45 c16 -6 27 -6 31 0 8 13 35 13 35 0 0 -5 -6 -7 -14 -4 -11 4
-13 0 -9 -15 3 -11 10 -18 16 -17 7 2 9 1 5 -1 -5 -3 -8 -26 -8 -53 l0 -48
-69 -4 -68 -3 3 50 c1 28 3 60 3 72 1 18 12 27 43 32 4 0 18 -3 32 -9z m633
-2 c-2 -55 5 -88 17 -88 9 0 12 7 9 20 -3 12 0 20 7 20 7 0 10 7 6 15 -3 8 -1
15 4 15 6 0 10 -29 10 -65 0 -53 -3 -63 -15 -59 -8 4 -15 11 -15 17 0 6 -6 2
-14 -8 -15 -20 -10 -55 8 -55 6 0 4 -5 -4 -10 -11 -7 -12 -12 -3 -21 6 -6 16
-8 22 -5 16 11 13 46 -4 46 -9 0 -15 9 -14 23 1 16 2 18 6 5 2 -10 11 -18 19
-18 10 0 14 -12 14 -41 0 -35 -2 -40 -19 -34 -26 8 -36 -11 -14 -25 14 -8 5
-10 -37 -6 -98 9 -128 17 -144 41 -15 23 -15 23 34 27 36 2 50 -1 50 -10 0 -7
3 -11 8 -8 4 2 7 50 6 105 -1 80 2 101 13 101 12 0 14 -23 11 -125 -2 -95 0
-125 10 -125 13 0 14 15 12 173 -1 63 2 107 8 107 5 0 10 -6 9 -12z m244 -31
c-17 -17 -24 -1 -9 22 11 18 14 19 16 5 2 -9 -1 -21 -7 -27z m79 39 c0 -18
-15 -36 -31 -36 -12 0 -19 7 -19 20 0 15 7 20 25 20 14 0 25 -2 25 -4z m-2754
-71 c-22 -22 -26 -19 -26 23 1 35 2 36 15 18 15 -19 15 -19 16 5 2 22 2 22 6
-4 3 -16 -2 -33 -11 -42z m3120 8 c-7 -16 -9 -14 -23 11 -12 24 -13 30 -1 37
17 11 33 -23 24 -48z m-2819 -20 c-2 -16 -4 -5 -4 22 0 28 2 40 4 28 2 -13 2
-35 0 -50z m2490 31 c-12 -12 -37 5 -30 21 5 15 7 15 21 1 9 -9 13 -18 9 -22z
m150 14 c-3 -8 -6 -5 -6 6 -1 11 2 17 5 13 3 -3 4 -12 1 -19z m223 -10 c0 -26
-24 -18 -28 10 -3 16 1 20 12 16 9 -3 16 -15 16 -26z m-3060 18 c0 -11 -19
-15 -25 -6 -3 5 1 10 9 10 9 0 16 -2 16 -4z m3110 -4 c0 -5 -9 -17 -20 -27
-19 -18 -20 -17 -20 2 0 11 3 23 7 26 9 10 33 9 33 -1z m740 -34 c0 -10 -3
-18 -7 -18 -18 1 -32 17 -31 37 2 17 5 19 20 9 10 -6 18 -19 18 -28z m-705 11
c-2 -23 -21 -39 -48 -39 -17 0 -16 3 5 29 27 35 45 39 43 10z m-1245 1 c0 -5
-5 -10 -11 -10 -5 0 -7 5 -4 10 3 6 8 10 11 10 2 0 4 -4 4 -10z m510 -47 c0
-41 -3 -54 -10 -43 -11 17 -13 61 -4 84 11 28 14 18 14 -41z m198 35 c-4 -31
-48 -39 -48 -10 0 20 12 30 38 31 8 1 12 -8 10 -21z m595 8 c23 -18 22 -24 -5
-21 -37 4 -38 4 -38 20 0 18 19 19 43 1z m-533 -27 c0 -20 -24 -26 -35 -9 -4
6 -4 17 -1 25 7 20 36 7 36 -16z m587 -6 c-4 9 -2 17 3 17 13 0 13 -27 0 -35
-18 -11 -40 3 -33 21 6 15 8 15 21 -2 13 -16 14 -17 9 -1z m53 13 c0 -3 -4 -8
-10 -11 -5 -3 -10 -1 -10 4 0 6 5 11 10 11 6 0 10 -2 10 -4z m24 -5 c3 -5 -1
-14 -8 -20 -12 -10 -13 -8 -9 8 6 23 9 25 17 12z m-3363 -38 c-4 -28 -6 -32
-9 -15 -3 22 3 52 11 52 1 0 1 -17 -2 -37z m3259 -20 c0 -2 -5 -1 -12 3 -7 5
-9 2 -6 -8 5 -13 0 -14 -40 -6 -26 6 -51 14 -56 19 -15 14 8 31 51 38 33 6 40
3 51 -17 6 -14 12 -26 12 -29z m-3580 43 c0 -3 -4 -8 -10 -11 -5 -3 -10 -1
-10 4 0 6 5 11 10 11 6 0 10 -2 10 -4z m290 -116 c0 -78 -4 -120 -11 -120 -7
0 -10 40 -8 120 1 66 6 120 11 120 4 0 8 -54 8 -120z m1285 110 c3 -6 -1 -7
-9 -4 -18 7 -21 14 -7 14 6 0 13 -4 16 -10z m1435 -31 c0 -16 -5 -18 -27 -13
-35 9 -37 10 -30 27 8 22 57 9 57 -14z m240 21 c0 -5 -4 -10 -10 -10 -5 0 -10
5 -10 10 0 6 5 10 10 10 6 0 10 -4 10 -10z m-1667 -14 c10 3 17 1 17 -6 0 -6
-4 -9 -9 -5 -5 3 -12 1 -15 -4 -4 -5 2 -12 11 -14 10 -3 5 -5 -12 -5 -16 0
-39 3 -50 8 -19 9 -19 9 3 16 12 3 22 11 22 18 0 7 3 6 8 -2 5 -7 16 -10 25
-6z m1357 -1 c0 -8 -7 -15 -15 -15 -8 0 -15 7 -15 15 0 8 7 15 15 15 8 0 15
-7 15 -15z m-3124 -30 c-1 -33 -16 -33 -16 0 0 14 4 25 9 25 5 0 8 -11 7 -25z
m3439 15 c3 -5 20 -10 36 -10 l30 0 -1 -77 c0 -43 3 -102 6 -130 4 -35 2 -58
-5 -67 -8 -10 -9 -16 -2 -21 12 -7 10 -71 -2 -67 -4 1 -26 2 -50 2 l-43 0 1
128 c3 224 5 252 14 252 6 0 13 -4 16 -10z m-1035 -47 c0 -53 -9 -62 -65 -69
-32 -5 -46 -4 -42 3 4 6 18 8 32 5 15 -2 25 0 25 7 0 6 -13 11 -30 11 -28 0
-30 2 -30 40 l0 40 55 0 55 0 0 -37z m-1896 -6 c2 -14 0 -29 -5 -32 -5 -4 -9
11 -9 31 0 42 6 42 14 1z m1276 14 c0 -3 -23 -7 -50 -8 -44 -3 -60 4 -46 18 7
7 96 -2 96 -10z m1160 -18 c0 -24 -3 -33 -9 -25 -7 12 -4 62 5 62 2 0 4 -17 4
-37z m60 18 c6 -12 6 -22 1 -25 -5 -4 -12 0 -15 6 -4 7 -4 3 -2 -9 3 -15 -1
-23 -10 -23 -9 0 -14 12 -14 35 0 39 22 48 40 16z m167 -7 c18 -5 22 -14 25
-60 l3 -54 -37 0 c-44 0 -47 4 -55 70 -6 48 -5 50 18 50 13 0 34 -3 46 -6z
m-2947 -109 c0 -58 -4 -105 -8 -105 -10 0 -16 185 -7 200 13 21 15 7 15 -95z
m3420 85 c-8 -5 -17 -7 -19 -4 -3 3 1 9 9 14 8 5 17 7 19 4 3 -3 -1 -9 -9 -14z
m91 -32 c1 -29 1 -62 1 -73 0 -11 -2 -47 -3 -80 -1 -33 1 -70 5 -82 6 -18 3
-21 -16 -17 l-23 5 23 -12 c32 -17 28 -36 -8 -35 l-30 1 -1 70 c-1 112 -8 228
-14 253 -5 20 -2 22 30 22 l35 0 1 -52z m-2484 20 c-3 -8 -6 -5 -6 6 -1 11 2
17 5 13 3 -3 4 -12 1 -19z m1179 -15 c-11 -11 -17 4 -9 23 7 18 8 18 11 1 2
-10 1 -21 -2 -24z m-1236 17 c0 -5 -4 -10 -9 -10 -6 0 -13 5 -16 10 -3 6 1 10
9 10 9 0 16 -4 16 -10z m40 0 c0 -5 -2 -10 -4 -10 -3 0 -8 5 -11 10 -3 6 -1
10 4 10 6 0 11 -4 11 -10z m298 -8 c-22 -4 -24 -22 -2 -22 9 0 18 9 21 20 3
11 9 17 14 14 5 -3 5 -12 0 -22 -5 -9 -12 -25 -15 -34 -3 -10 -12 -18 -21 -18
-8 0 -16 8 -16 18 -1 16 -2 16 -6 0 -5 -19 -23 -25 -23 -8 0 6 -9 10 -20 10
-22 0 -27 -15 -7 -23 7 -3 4 -6 -6 -6 -24 -1 -48 24 -41 42 3 9 14 12 31 9 18
-3 24 -1 19 7 -4 6 -15 12 -24 13 -9 0 6 4 33 7 50 6 100 1 63 -7z m2332 -2
c0 -11 -6 -20 -12 -20 -10 0 -10 -2 -1 -8 15 -10 4 -62 -13 -62 -18 0 -20 96
-1 103 22 10 27 7 27 -13z m-3420 -40 c0 -47 -1 -50 -26 -50 -20 0 -25 4 -20
16 3 9 6 25 6 35 0 11 4 18 9 14 5 -3 12 4 16 15 10 33 15 23 15 -30z m-250
11 c0 -10 -7 -21 -15 -25 -11 -4 -15 1 -15 19 0 16 6 25 15 25 8 0 15 -9 15
-19z m321 6 c-15 -15 15 -38 43 -33 15 3 27 -1 30 -10 5 -12 -1 -14 -28 -9
-25 5 -35 3 -39 -9 -12 -31 -27 -15 -27 27 0 33 4 44 15 44 10 0 12 -4 6 -10z
m709 9 c0 -2 -15 -6 -34 -8 -19 -2 -32 0 -30 4 5 8 64 12 64 4z m50 -6 c0 -5
-8 -10 -17 -10 -15 0 -16 2 -3 10 19 12 20 12 20 0z m449 -16 c2 -2 -8 -4 -22
-4 -18 0 -27 5 -27 15 0 13 4 14 23 4 12 -6 24 -13 26 -15z m1931 16 c0 -5 -8
-10 -17 -10 -15 0 -16 2 -3 10 19 12 20 12 20 0z m-2560 -10 c0 -5 -7 -10 -16
-10 -8 0 -12 -5 -9 -10 4 -6 11 -8 16 -5 5 4 9 4 9 1 0 -3 -8 -10 -18 -15 -16
-8 -18 -6 -16 12 1 12 3 25 3 30 1 11 31 8 31 -3z m-517 -7 c-7 -2 -19 -2 -25
0 -7 3 -2 5 12 5 14 0 19 -2 13 -5z m3087 -24 c0 -11 -3 -11 -24 -3 -23 9 -20
23 4 17 11 -3 20 -9 20 -14z m-3880 1 c0 -5 -4 -10 -10 -10 -5 0 -10 5 -10 10
0 6 5 10 10 10 6 0 10 -4 10 -10z m220 -5 c0 -8 -4 -15 -10 -15 -5 0 -7 7 -4
15 4 8 8 15 10 15 2 0 4 -7 4 -15z m869 -2 c19 -15 19 -17 3 -30 -16 -12 -15
-13 3 -11 14 2 20 -3 20 -17 0 -17 -7 -20 -57 -22 l-58 -1 0 44 c0 57 27 63
32 7 l4 -38 8 43 c9 46 16 50 45 25z m125 2 c3 -8 1 -15 -4 -15 -6 0 -10 7
-10 15 0 8 2 15 4 15 2 0 6 -7 10 -15z m581 5 c-3 -5 -11 -10 -16 -10 -6 0 -7
5 -4 10 3 6 11 10 16 10 6 0 7 -4 4 -10z m133 3 c-10 -2 -26 -2 -35 0 -10 3
-2 5 17 5 19 0 27 -2 18 -5z m-940 -88 c-2 -1 -15 -5 -30 -9 -27 -6 -28 -5
-28 38 0 41 2 45 28 48 25 3 27 0 30 -36 2 -21 2 -39 0 -41z m502 75 c0 -5 -7
-10 -16 -10 -8 0 -12 5 -9 10 3 6 10 10 16 10 5 0 9 -4 9 -10z m140 -5 c0 -8
-7 -15 -16 -15 -14 0 -14 3 -4 15 7 8 14 15 16 15 2 0 4 -7 4 -15z m1966 6
c-4 -5 0 -12 6 -14 8 -3 6 -6 -4 -6 -18 -1 -24 10 -11 22 9 10 15 8 9 -2z
m-3186 -46 c0 -33 -4 -45 -15 -45 -11 0 -15 12 -15 45 0 33 4 45 15 45 11 0
15 -12 15 -45z m1150 35 c0 -5 -8 -10 -17 -10 -15 0 -16 2 -3 10 19 12 20 12
20 0z m-1573 -62 c-2 -13 -4 -3 -4 22 0 25 2 35 4 23 2 -13 2 -33 0 -45z
m3110 55 c-4 -3 -19 -7 -34 -9 -39 -3 -40 -3 -23 -14 13 -8 12 -10 -2 -10 -31
0 -21 -36 15 -54 l32 -16 -37 0 -38 0 0 48 c0 27 3 52 7 55 3 4 24 7 46 7 22
0 37 -3 34 -7z m783 -14 c0 -5 -7 -9 -15 -9 -9 0 -12 6 -9 15 6 15 24 11 24
-6z m-3413 -26 c-3 -10 -5 -4 -5 12 0 17 2 24 5 18 2 -7 2 -21 0 -30z m983 27
c0 -5 -21 -9 -47 -8 l-48 1 45 7 c25 4 46 8 48 8 1 1 2 -2 2 -8z m-583 -22
c-3 -8 -6 -5 -6 6 -1 11 2 17 5 13 3 -3 4 -12 1 -19z m2220 -2 c-8 -16 -14
-21 -19 -13 -11 17 -10 29 1 22 5 -3 12 -1 16 5 12 19 13 10 2 -14z m989 -33
c2 -13 -1 -23 -6 -23 -11 0 -20 26 -20 58 1 25 1 26 12 7 7 -11 13 -30 14 -42z
m-3251 28 c-3 -6 -15 -11 -26 -11 -11 0 -18 -4 -15 -9 3 -4 24 -5 46 -1 38 7
40 6 34 -14 -8 -25 -22 -35 -49 -37 -21 -1 -33 -3 -84 -14 l-32 -7 3 43 3 44
60 10 c65 12 70 12 60 -4z m2780 -38 c0 -41 -4 -57 -15 -60 -12 -4 -12 -3 -1
5 9 7 10 12 2 16 -6 4 -11 12 -11 17 0 6 5 7 10 4 7 -4 8 8 4 34 -4 23 -3 41
3 41 5 0 9 -25 8 -57z m-2965 -7 c0 -39 -3 -44 -25 -48 -23 -5 -25 -2 -25 33
0 26 6 41 18 48 28 17 32 13 32 -33z m30 4 c0 -22 -4 -40 -10 -40 -11 0 -13
39 -4 64 10 26 14 19 14 -24z m1997 8 c-3 -7 -5 -2 -5 12 0 14 2 19 5 13 2 -7
2 -19 0 -25z m390 16 c-3 -3 -12 -4 -19 -1 -8 3 -5 6 6 6 11 1 17 -2 13 -5z
m-2082 -24 c-3 -5 -18 -9 -33 -9 l-27 1 30 8 c17 4 31 8 33 9 2 0 0 -3 -3 -9z
m-684 -40 c6 0 7 -4 4 -10 -13 -21 -25 -9 -24 23 1 23 3 26 6 10 2 -13 9 -23
14 -23z m254 -7 c-19 -46 -22 -49 -57 -57 -27 -6 -28 -5 -28 34 0 35 3 40 28
46 15 3 32 7 37 9 32 11 35 5 20 -32z m3687 -7 c-3 -5 -9 -1 -13 10 -12 31
-10 39 5 19 8 -11 12 -24 8 -29z m-3985 2 c-3 -8 -6 -5 -6 6 -1 11 2 17 5 13
3 -3 4 -12 1 -19z m190 -30 c-2 -13 -4 -5 -4 17 -1 22 1 32 4 23 2 -10 2 -28
0 -40z m3443 42 c0 -5 -4 -10 -10 -10 -5 0 -10 5 -10 10 0 6 5 10 10 10 6 0
10 -4 10 -10z m-3470 -34 c0 -25 -5 -35 -20 -39 -17 -4 -20 0 -20 34 0 32 3
39 20 39 16 0 20 -7 20 -34z m2614 17 c-5 -15 -3 -15 10 1 13 17 16 17 16 4 0
-9 3 -24 7 -34 4 -12 3 -15 -5 -10 -7 4 -12 3 -12 -3 0 -5 10 -12 23 -14 16
-3 13 -5 -10 -6 -18 0 -33 -4 -33 -8 0 -5 64 -10 143 -12 78 -2 156 -5 172 -6
17 -2 49 -3 73 -4 38 -1 42 -3 42 -26 l0 -26 -122 6 c-68 4 -134 8 -148 11
-14 2 -134 4 -267 4 l-243 0 0 25 0 25 158 0 c173 0 182 3 182 57 0 18 4 33
10 33 5 0 7 -8 4 -17z m-2804 -3 c0 -5 -5 -10 -11 -10 -5 0 -7 5 -4 10 3 6 8
10 11 10 2 0 4 -4 4 -10z m2129 1 c9 -6 5 -8 -13 -8 -14 0 -26 3 -26 8 0 11
21 11 39 0z m139 0 c13 -7 6 -9 -25 -8 -24 1 -43 4 -43 7 0 10 51 10 68 1z
m-2158 -26 c-18 -47 -42 -75 -64 -74 -11 0 -15 3 -8 6 6 2 12 20 12 39 0 27 4
34 19 34 11 0 23 5 26 10 13 21 24 9 15 -15z m1700 15 c0 -5 -15 -10 -34 -10
-19 0 -43 -3 -53 -6 -12 -5 -15 -4 -8 4 6 6 26 12 45 15 19 2 38 5 43 5 4 1 7
-2 7 -8z m75 -1 c4 -5 -1 -9 -9 -9 -9 0 -19 0 -23 -1 -4 0 -9 3 -10 8 -4 12
35 14 42 2z m70 1 c16 -6 14 -8 -12 -7 -18 0 -33 4 -33 9 0 10 18 9 45 -2z
m1685 -10 c0 -5 -5 -10 -11 -10 -5 0 -7 5 -4 10 3 6 8 10 11 10 2 0 4 -4 4
-10z m408 -35 c-3 -3 -9 2 -12 12 -6 14 -5 15 5 6 7 -7 10 -15 7 -18z m-2275
8 c-13 -2 -35 -2 -50 0 -16 2 -5 4 22 4 28 0 40 -2 28 -4z m1885 -18 c-3 -3
-9 2 -12 12 -6 14 -5 15 5 6 7 -7 10 -15 7 -18z m-3856 -10 c-2 -14 -6 -25 -8
-25 -2 0 -4 11 -4 25 0 14 4 25 9 25 4 0 6 -11 3 -25z m203 0 c0 -11 -8 -21
-17 -23 -14 -3 -18 3 -18 23 0 20 4 26 18 23 9 -2 17 -12 17 -23z m22 3 c-3
-8 -6 -5 -6 6 -1 11 2 17 5 13 3 -3 4 -12 1 -19z m2349 -155 c1 -108 -2 -173
-8 -173 -6 0 -8 6 -5 14 3 7 -1 25 -8 39 -12 23 -11 25 3 19 15 -5 15 -4 3 12
-11 13 -16 14 -22 4 -12 -17 -11 -55 0 -62 5 -4 7 -20 5 -36 -6 -34 -2 -37 19
-15 14 13 15 1 16 -105 l1 -120 -35 0 c-32 0 -35 2 -35 30 0 22 5 30 18 30 12
0 14 2 4 8 -10 7 -14 72 -17 271 l-4 262 32 -3 32 -3 1 -172z m-2433 152 c-3
-9 -8 -14 -10 -11 -3 3 -2 9 2 15 9 16 15 13 8 -4z m1307 -5 c0 -5 -21 -9 -47
-8 l-48 1 45 7 c25 4 46 8 48 8 1 1 2 -2 2 -8z m2246 -15 c3 -13 2 -37 -3 -52
-5 -16 -6 -43 -2 -62 4 -19 5 -51 3 -70 -3 -28 -2 -32 5 -16 5 11 10 34 10 52
1 49 25 66 80 58 25 -4 51 -11 56 -17 7 -7 0 -9 -22 -6 -18 3 -33 1 -33 -4 0
-4 -8 -8 -17 -8 -17 -1 -17 -1 0 -11 9 -5 22 -7 29 -3 7 5 8 3 4 -5 -5 -7 -14
-10 -21 -8 -16 7 -75 -47 -75 -68 0 -10 -7 -15 -17 -13 -11 2 -17 11 -15 21 2
9 -2 17 -8 17 -5 0 -11 -4 -11 -10 -1 -5 -2 -15 -3 -22 0 -6 -6 -13 -13 -15
-8 -3 -12 10 -12 39 0 47 -10 182 -16 211 -2 14 4 17 36 17 33 0 40 -4 45 -25z
m-148 -4 c49 -1 52 -3 52 -27 0 -24 -2 -25 -45 -21 -28 2 -45 0 -46 -7 0 -6
-3 -6 -6 2 -2 6 -18 12 -34 12 -16 0 -29 4 -29 9 0 24 13 38 33 36 12 -1 46
-3 75 -4z m-2494 -9 c3 -5 -1 -9 -9 -9 -8 0 -12 4 -9 9 3 4 7 8 9 8 2 0 6 -4
9 -8z m2798 -64 c-5 -5 -38 -6 -75 -2 -65 7 -67 7 -67 35 0 22 5 29 20 29 11
0 19 -5 18 -12 -4 -17 73 -32 83 -16 4 7 5 16 2 22 -3 5 -1 6 5 2 7 -4 13 -1
14 6 0 7 3 -2 5 -21 3 -18 0 -38 -5 -43z m-2842 47 c-7 -9 -28 -15 -49 -14
l-36 1 45 12 c25 8 47 14 49 15 2 0 -2 -6 -9 -14z m616 6 c-3 -5 -14 -11 -25
-14 -14 -3 -18 -1 -14 9 3 8 14 14 25 14 10 0 17 -4 14 -9z m2379 -29 c20 -11
20 -12 -2 -18 -13 -3 -23 -10 -23 -15 0 -5 -5 -9 -10 -9 -6 0 -9 12 -6 28 2
15 5 32 5 37 1 6 4 6 9 -1 4 -6 16 -16 27 -22z m-2455 -17 c-13 -13 -29 -21
-40 -18 -22 6 -37 -15 -16 -23 18 -7 11 -24 -10 -24 -9 0 -14 11 -14 35 0 39
-1 39 33 26 20 -8 29 -6 41 8 9 10 13 21 9 26 -5 4 -2 5 5 1 11 -6 9 -13 -8
-31z m1609 -16 c-19 -12 -39 -11 -39 1 0 15 44 30 49 18 2 -6 -3 -14 -10 -19z
m309 -7 c6 -19 -22 -3 -37 20 -14 22 -13 22 10 7 12 -9 25 -21 27 -27z m-396
15 c-31 -7 -46 -7 -54 1 -9 9 1 12 43 11 l54 -1 -43 -11z m497 -3 c2 -2 -10
-4 -27 -4 -24 0 -30 -4 -26 -15 7 -18 -7 -20 -24 -3 -25 25 -14 38 31 32 23
-4 44 -8 46 -10z m-2705 -24 c-6 -6 -15 -5 -24 1 -13 9 -12 10 3 5 9 -3 17 0
17 6 0 6 3 8 7 5 4 -4 2 -12 -3 -17z m-114 -12 c0 -13 -23 -5 -28 10 -2 7 2
10 12 6 9 -3 16 -11 16 -16z m340 16 c0 0 -8 -11 -19 -23 -16 -19 -20 -19 -31
-6 -11 13 -10 14 5 8 14 -5 17 -3 13 8 -4 10 1 15 13 15 11 0 19 -1 19 -2z
m2174 -3 c3 -4 -6 -13 -20 -20 -34 -15 -36 -14 -17 9 19 22 29 25 37 11z
m-2574 -22 c0 -5 -7 -9 -15 -9 -8 0 -15 7 -15 15 0 9 6 12 15 9 8 -4 15 -10
15 -15z m-42 -50 c4 -81 -6 -139 -24 -139 -10 0 -14 14 -15 50 -4 132 -1 150
19 150 14 0 18 -11 20 -61z m189 55 c13 -4 20 -10 18 -15 -3 -4 -17 -4 -31 1
-16 7 -32 7 -44 0 -28 -15 -38 -11 -16 5 21 16 38 18 73 9z m68 -4 c3 -6 -1
-7 -9 -4 -18 7 -21 14 -7 14 6 0 13 -4 16 -10z m238 -24 c-4 -18 -10 -23 -22
-19 -13 5 -12 2 4 -17 l20 -23 -25 7 c-14 3 -19 3 -12 0 6 -3 10 -10 6 -15 -3
-5 0 -8 7 -7 6 2 14 -3 16 -9 7 -18 -23 -16 -41 3 -23 23 -20 42 13 75 36 35
40 36 34 5z m2707 14 c0 -5 -4 -10 -9 -10 -6 0 -13 5 -16 10 -3 6 1 10 9 10 9
0 16 -4 16 -10z m-2966 -21 c-3 -5 -10 -7 -15 -3 -5 3 -7 10 -3 15 3 5 10 7
15 3 5 -3 7 -10 3 -15z m-198 -1 c4 -6 3 -8 -4 -4 -7 4 -12 -6 -15 -26 -4 -33
-4 -33 -5 5 -2 36 10 49 24 25z m-287 -103 c-1 -11 -2 -33 -2 -50 l0 -30 -14
33 c-15 38 -20 123 -7 143 9 15 26 -56 23 -96z m327 60 c-9 -21 -19 -62 -22
-91 -5 -36 -11 -54 -20 -54 -21 0 -17 -20 4 -21 15 -1 15 -2 0 -6 -10 -2 -18
-17 -21 -36 -2 -18 -5 3 -5 46 -1 46 2 77 8 77 6 0 10 6 10 13 0 17 51 119 57
114 2 -3 -3 -22 -11 -42z m2449 35 c-3 -5 -12 -10 -18 -10 -7 0 -6 4 3 10 19
12 23 12 15 0z m380 -10 c3 -5 -4 -6 -15 -3 -26 7 -26 -12 0 -39 14 -15 20
-36 20 -67 l0 -46 -15 29 c-8 15 -15 38 -16 50 0 20 -1 20 -8 2 -7 -19 -8 -18
-14 4 -3 13 -2 27 3 30 5 3 5 11 0 20 -17 26 -11 37 15 32 14 -2 27 -8 30 -12z
m-2645 0 c0 -5 -4 -10 -10 -10 -5 0 -10 5 -10 10 0 6 5 10 10 10 6 0 10 -4 10
-10z m-155 -24 c0 -15 -4 -21 -9 -16 -5 5 -6 16 -3 24 9 22 12 20 12 -8z
m3104 -36 c0 -9 -4 -8 -9 5 -5 11 -9 27 -9 35 0 9 4 8 9 -5 5 -11 9 -27 9 -35z
m-1092 -8 c26 -16 40 -55 49 -134 8 -73 -9 -77 -37 -10 -11 26 -31 68 -44 93
-41 76 -31 92 32 51z m-2095 -7 c-2 -14 -6 -25 -8 -25 -2 0 -4 11 -4 25 0 14
4 25 9 25 4 0 6 -11 3 -25z m-212 -5 c0 -11 -4 -20 -10 -20 -5 0 -10 9 -10 20
0 11 5 20 10 20 6 0 10 -9 10 -20z m3221 -20 c6 0 8 4 4 9 -3 5 0 13 6 17 9 5
10 0 6 -17 -4 -13 -7 -28 -7 -34 0 -5 -5 -3 -10 5 -7 11 -10 1 -11 -35 -1 -27
-4 -41 -6 -30 -3 11 -9 25 -13 30 -9 12 -7 42 5 70 8 18 10 18 13 3 2 -10 8
-18 13 -18z m-2541 0 c9 -17 8 -20 -10 -20 -11 0 -20 5 -20 11 0 5 -6 7 -12 3
-9 -5 -9 -2 1 9 18 22 28 21 41 -3z m890 -37 c0 -38 -16 -25 -17 13 0 24 2 32
8 23 5 -8 9 -24 9 -36z m1823 -8 c5 -48 5 -49 -9 -23 -9 16 -12 38 -8 53 8 34
10 30 17 -30z m-1793 19 c0 -8 -4 -14 -8 -14 -4 0 -8 9 -8 19 0 11 4 17 8 15
4 -3 8 -12 8 -20z m-1806 1 c3 -8 1 -15 -4 -15 -6 0 -10 7 -10 15 0 8 2 15 4
15 2 0 6 -7 10 -15z m200 -7 c15 -17 15 -20 3 -15 -9 3 -18 1 -21 -6 -2 -7 -5
0 -5 16 -1 33 0 33 23 5z m1435 -83 c-2 -67 -6 -102 -12 -96 -9 9 0 201 10
201 2 0 3 -47 2 -105z m1698 -27 c0 -73 2 -151 6 -173 8 -44 -6 -81 -22 -56
-6 10 -10 10 -13 1 -2 -7 -28 -14 -63 -17 -51 -3 -57 -2 -45 11 7 9 13 38 13
66 1 59 14 67 20 13 3 -33 5 -35 12 -15 8 23 25 30 25 10 0 -9 3 -9 12 0 14
14 29 16 26 3 -2 -5 2 -10 7 -11 13 -3 6 133 -7 141 -7 4 -6 9 1 13 6 4 11 22
11 39 0 24 -3 28 -10 17 -7 -12 -10 -8 -10 15 0 23 3 27 10 15 7 -11 10 -5 10
23 0 20 4 37 9 37 5 0 9 -58 8 -132z m-3386 112 c1 -5 2 -17 2 -25 0 -93 -4
-147 -10 -141 -11 11 -13 176 -2 176 5 0 10 -4 10 -10z m1399 -36 c0 -13 -4
-24 -10 -24 -5 0 -10 5 -10 10 0 6 -7 10 -15 10 -8 0 -15 7 -15 15 0 8 -5 15
-11 15 -5 0 -7 -4 -4 -10 3 -5 1 -10 -4 -10 -6 0 -11 9 -11 19 0 17 4 18 40 9
33 -9 40 -15 40 -34z m1877 -1 c1 -26 -2 -53 -6 -61 -4 -7 -7 6 -6 30 1 24 -3
51 -7 61 -6 12 -5 17 5 17 9 0 13 -15 14 -47z m30 25 c-3 -8 -6 -5 -6 6 -1 11
2 17 5 13 3 -3 4 -12 1 -19z m-2377 -18 c0 -12 -8 -12 -35 0 -18 8 -17 9 8 9
15 1 27 -3 27 -9z m-737 -13 c7 4 6 -1 -2 -11 -8 -9 -10 -16 -5 -15 31 6 41
-2 36 -28 l-6 -28 -7 25 c-4 14 -7 -32 -8 -101 -1 -92 -4 -128 -13 -132 -10
-3 -13 31 -15 152 0 86 1 150 4 143 3 -6 10 -9 16 -5z m251 -2 c3 -9 0 -15 -9
-15 -8 0 -15 -4 -15 -10 0 -5 7 -10 15 -10 20 0 19 -26 -1 -34 -25 -9 -30 -1
-26 43 4 41 24 56 36 26z m-417 -212 c-2 -37 -3 -9 -3 62 0 72 1 102 3 68 2
-34 2 -93 0 -130z m3875 155 c-8 -8 -9 -4 -5 13 4 13 8 18 11 10 2 -7 -1 -18
-6 -23z m-2512 13 c0 -6 -4 -12 -8 -15 -5 -3 -9 1 -9 9 0 8 4 15 9 15 4 0 8
-4 8 -9z m508 -27 c-3 -14 -5 -12 -10 9 -3 19 -2 25 4 19 6 -6 8 -18 6 -28z
m1579 14 c-3 -8 -6 -5 -6 6 -1 11 2 17 5 13 3 -3 4 -12 1 -19z m-2096 -35 c13
-15 12 -15 -11 -3 -34 17 -36 20 -18 20 9 0 22 -7 29 -17z m-931 -119 c0 -106
-1 -114 -19 -114 -29 0 -33 12 -25 95 5 53 11 75 20 75 8 0 14 5 14 10 0 6 -8
10 -19 10 -13 0 -18 7 -18 23 0 20 4 23 23 19 24 -4 24 -6 24 -118z m-185 42
c-19 -9 -19 -10 3 -13 24 -5 29 -18 10 -29 -7 -5 -5 -12 8 -22 13 -10 15 -16
7 -19 -10 -3 -9 -8 2 -20 23 -23 18 -30 -21 -29 l-35 1 2 78 c2 55 7 77 16 77
7 0 12 3 12 8 -1 4 0 16 1 27 2 12 5 6 9 -15 5 -29 3 -37 -14 -44z m3068 57
c-7 -2 -19 -2 -25 0 -7 3 -2 5 12 5 14 0 19 -2 13 -5z m-3282 -78 c1 -39 6
-78 11 -87 5 -11 5 -18 -1 -18 -15 0 -21 29 -21 107 0 95 8 93 11 -2z m3396
69 c-3 -3 -12 -4 -19 -1 -8 3 -5 6 6 6 11 1 17 -2 13 -5z m-3561 -60 c2 -26 6
-55 9 -66 5 -13 1 -18 -12 -18 -20 0 -28 49 -18 109 8 43 16 34 21 -25z m3452
38 c-10 -2 -18 -8 -18 -14 0 -6 -3 -8 -6 -5 -11 10 17 38 30 30 7 -5 5 -9 -6
-11z m-3330 -55 c2 -31 -2 -58 -7 -62 -7 -4 -11 16 -11 60 0 79 14 80 18 2z
m909 2 c-2 -39 -17 -56 -17 -20 0 11 -4 22 -9 26 -17 10 -8 42 10 38 13 -4 17
-15 16 -44z m-327 25 c0 -8 -4 -12 -10 -9 -5 3 -10 10 -10 16 0 5 5 9 10 9 6
0 10 -7 10 -16z m3150 -42 l0 -48 -35 4 c-33 4 -35 6 -35 41 0 45 5 51 42 51
27 0 28 -2 28 -48z m162 -4 c4 -36 2 -48 -8 -48 -8 0 -12 10 -10 28 2 15 4 38
5 51 2 36 8 22 13 -31z m-2213 -47 c1 -33 -3 -62 -9 -66 -6 -4 -10 17 -10 59
0 82 16 88 19 7z m-1767 19 c3 -16 1 -30 -4 -30 -4 0 -8 14 -8 30 0 17 2 30 4
30 2 0 6 -13 8 -30z m2458 0 c0 -28 -3 -30 -35 -30 -32 0 -35 2 -35 30 0 28 3
30 35 30 32 0 35 -2 35 -30z m-2580 5 c0 -8 -4 -15 -10 -15 -5 0 -7 7 -4 15 4
8 8 15 10 15 2 0 4 -7 4 -15z m3425 -41 c8 -6 10 -15 5 -23 -13 -22 -30 -3
-29 32 0 18 3 25 6 17 3 -8 11 -20 18 -26z m232 30 c-3 -3 -12 -4 -19 -1 -8 3
-5 6 6 6 11 1 17 -2 13 -5z m-3452 -45 c-3 -4 -12 -6 -20 -3 -8 4 -13 10 -10
15 3 4 12 6 20 3 8 -4 13 -10 10 -15z m2385 1 c0 -5 -18 -10 -40 -10 -22 0
-40 5 -40 10 0 6 18 10 40 10 22 0 40 -4 40 -10z m790 -12 c0 -5 -30 -8 -66
-8 -36 0 -63 4 -60 9 7 10 126 9 126 -1z m-1690 -8 c0 -5 -5 -10 -11 -10 -5 0
-7 5 -4 10 3 6 8 10 11 10 2 0 4 -4 4 -10z m870 -6 c0 -2 -16 -4 -36 -4 -19 0
-33 4 -30 8 5 8 66 4 66 -4z m-625 -14 c3 -5 1 -10 -4 -10 -6 0 -11 5 -11 10
0 6 2 10 4 10 3 0 8 -4 11 -10z"/>
<path d="M1143 3632 c-49 -20 -69 -37 -32 -29 33 8 99 36 99 42 0 9 -24 4 -67
-13z"/>
<path d="M1128 3573 c-10 -2 -18 -9 -18 -14 0 -13 13 -11 36 6 19 14 14 17
-18 8z"/>
<path d="M1000 3666 c0 -26 4 -36 13 -33 13 4 11 46 -4 62 -5 5 -9 -6 -9 -29z"/>
<path d="M1000 3616 c0 -2 8 -10 18 -17 15 -13 16 -12 3 4 -13 16 -21 21 -21
13z"/>
<path d="M995 3559 c-4 -6 -5 -13 -2 -16 7 -7 27 6 27 18 0 12 -17 12 -25 -2z"/>
<path d="M890 3498 c0 -8 5 -19 11 -25 7 -7 2 -15 -15 -27 -36 -23 -32 -39 4
-18 25 14 30 23 28 46 -3 29 -28 50 -28 24z"/>
<path d="M1380 2991 c0 -5 9 -7 20 -4 11 3 20 7 20 9 0 2 -9 4 -20 4 -11 0
-20 -4 -20 -9z"/>
<path d="M1373 2930 c-2 -18 0 -18 13 -6 17 18 18 26 1 26 -7 0 -13 -9 -14
-20z"/>
<path d="M1250 2990 c0 -5 5 -10 11 -10 5 0 7 5 4 10 -3 6 -8 10 -11 10 -2 0
-4 -4 -4 -10z"/>
<path d="M3592 2708 c5 -15 28 -23 28 -10 0 5 -7 13 -16 16 -10 4 -14 1 -12
-6z"/>
<path d="M920 2685 c0 -14 4 -25 8 -25 4 0 9 11 10 25 1 14 -3 25 -8 25 -6 0
-10 -11 -10 -25z"/>
<path d="M3544 2549 c-3 -6 0 -15 7 -20 11 -6 11 -13 3 -26 -14 -23 -6 -80 12
-87 12 -5 12 -2 3 16 -11 20 -10 20 45 14 38 -5 56 -4 56 3 0 7 -23 11 -55 11
-42 0 -55 3 -55 15 0 12 10 14 55 9 51 -6 55 -5 55 13 0 15 -11 23 -43 32 -23
7 -49 11 -57 9 -8 -2 -14 3 -12 10 3 15 -5 16 -14 1z m91 -34 l30 -13 -32 -1
c-37 -1 -63 7 -63 20 0 13 30 10 65 -6z"/>
<path d="M3727 2513 c-4 -3 -7 -11 -7 -17 0 -6 5 -5 12 2 6 6 9 14 7 17 -3 3
-9 2 -12 -2z"/>
<path d="M3490 2465 c0 -8 5 -15 10 -15 6 0 10 7 10 15 0 8 -4 15 -10 15 -5 0
-10 -7 -10 -15z"/>
<path d="M3798 2463 c7 -3 16 -2 19 1 4 3 -2 6 -13 5 -11 0 -14 -3 -6 -6z"/>
<path d="M4198 2523 c17 -7 15 -21 -3 -26 -11 -4 -10 -4 2 -3 24 2 30 36 6 35
-10 0 -13 -3 -5 -6z"/>
<path d="M4009 2412 c20 -16 22 -22 12 -40 -6 -11 -11 -27 -11 -34 1 -7 8 0
16 15 18 34 14 52 -18 67 l-23 11 24 -19z"/>
<path d="M4050 2416 c0 -9 5 -16 10 -16 6 0 10 4 10 9 0 6 -4 13 -10 16 -5 3
-10 -1 -10 -9z"/>
<path d="M4175 2420 c3 -5 1 -10 -5 -10 -7 0 -10 -6 -7 -12 2 -7 13 -12 25
-10 11 2 23 -2 27 -8 4 -6 -5 -11 -22 -11 -23 -2 -24 -2 -5 -6 33 -6 27 -23
-9 -23 -28 0 -29 -1 -14 -17 14 -13 18 -14 25 -2 7 10 11 8 19 -11 10 -26 11
-25 15 25 1 17 6 38 10 48 7 14 3 17 -18 17 -16 0 -26 6 -26 15 0 8 -5 15 -11
15 -5 0 -7 -4 -4 -10z"/>
<path d="M3905 2400 c3 -5 16 -10 28 -10 18 0 19 2 7 10 -20 13 -43 13 -35 0z"/>
<path d="M4455 2280 c3 -5 8 -10 11 -10 2 0 4 5 4 10 0 6 -5 10 -11 10 -5 0
-7 -4 -4 -10z"/>
<path d="M4380 2266 c0 -2 7 -6 15 -10 8 -3 15 -1 15 4 0 6 -7 10 -15 10 -8 0
-15 -2 -15 -4z"/>
<path d="M4347 2150 c3 -11 7 -20 9 -20 2 0 4 9 4 20 0 11 -4 20 -9 20 -5 0
-7 -9 -4 -20z"/>
<path d="M2818 2263 c6 -2 18 -2 25 0 6 3 1 5 -13 5 -14 0 -19 -2 -12 -5z"/>
<path d="M3077 2068 c-5 -18 3 -48 14 -48 5 0 9 7 9 15 0 8 5 15 11 15 6 0 4
7 -5 15 -18 18 -23 19 -29 3z"/>
<path d="M3100 1998 c0 -4 14 -8 30 -8 17 0 30 2 30 4 0 2 -13 6 -30 8 -16 3
-30 1 -30 -4z"/>
<path d="M3180 1995 c0 -9 6 -12 15 -9 8 4 15 7 15 9 0 2 -7 5 -15 9 -9 3 -15
0 -15 -9z"/>
<path d="M3008 1989 c17 -5 32 -12 32 -15 0 -3 -9 -3 -19 1 -20 6 -23 -8 -8
-32 10 -16 67 -17 67 -2 0 6 -7 9 -15 5 -8 -3 -25 -1 -37 4 -22 8 -22 9 -3 11
11 1 38 1 60 1 l40 -2 -40 14 c-37 12 -38 13 -15 18 14 3 -2 5 -35 6 -53 0
-56 -1 -27 -9z"/>
<path d="M3178 1953 c6 -2 12 -12 12 -21 0 -15 2 -15 10 -2 9 15 -4 30 -25 29
-5 0 -4 -3 3 -6z"/>
<path d="M3108 1943 c6 -2 18 -2 25 0 6 3 1 5 -13 5 -14 0 -19 -2 -12 -5z"/>
<path d="M2974 1931 c4 -6 3 -11 -2 -11 -22 0 1 -35 24 -36 18 -2 24 3 24 20
0 17 -2 18 -10 6 -9 -15 -11 -13 -14 12 0 6 -7 13 -15 16 -8 3 -11 0 -7 -7z"/>
<path d="M3140 1930 c-24 -8 -23 -8 8 -9 17 -1 32 4 32 9 0 11 -5 11 -40 0z"/>
<path d="M3040 1895 c0 -9 5 -15 11 -13 6 2 11 8 11 13 0 5 -5 11 -11 13 -6 2
-11 -4 -11 -13z"/>
<path d="M3090 1894 c0 -8 9 -14 20 -14 11 0 20 4 20 9 0 5 -9 11 -20 14 -13
3 -20 0 -20 -9z"/>
<path d="M3172 1898 c5 -13 48 -22 48 -9 0 9 -24 21 -42 21 -5 0 -8 -5 -6 -12z"/>
<path d="M3050 1850 c0 -5 7 -7 15 -4 8 4 15 8 15 10 0 2 -7 4 -15 4 -8 0 -15
-4 -15 -10z"/>
<path d="M3006 1836 c7 -18 34 -22 34 -4 0 6 -3 8 -7 5 -3 -4 -12 -2 -20 5
-11 8 -12 7 -7 -6z"/>
<path d="M3098 1843 c6 -2 18 -2 25 0 6 3 1 5 -13 5 -14 0 -19 -2 -12 -5z"/>
<path d="M3198 1823 c7 -3 16 -2 19 1 4 3 -2 6 -13 5 -11 0 -14 -3 -6 -6z"/>
<path d="M3915 2110 c-3 -5 -1 -10 4 -10 6 0 11 5 11 10 0 6 -2 10 -4 10 -3 0
-8 -4 -11 -10z"/>
<path d="M3915 1890 c3 -5 8 -10 11 -10 2 0 4 5 4 10 0 6 -5 10 -11 10 -5 0
-7 -4 -4 -10z"/>
<path d="M3930 1846 c0 -16 18 -31 27 -22 3 3 -2 12 -11 21 -14 14 -16 14 -16
1z"/>
<path d="M4170 1990 c0 -5 7 -10 16 -10 8 0 12 5 9 10 -3 6 -10 10 -16 10 -5
0 -9 -4 -9 -10z"/>
<path d="M4170 1880 c0 -5 5 -10 10 -10 6 0 10 5 10 10 0 6 -4 10 -10 10 -5 0
-10 -4 -10 -10z"/>
<path d="M1940 2060 c0 -6 7 -10 15 -10 8 0 15 2 15 4 0 2 -7 6 -15 10 -8 3
-15 1 -15 -4z"/>
<path d="M2820 1590 c-9 -6 -10 -10 -3 -10 6 0 15 5 18 10 8 12 4 12 -15 0z"/>
<path d="M2818 1553 c7 -3 16 -2 19 1 4 3 -2 6 -13 5 -11 0 -14 -3 -6 -6z"/>
<path d="M3915 1630 c-3 -5 -2 -10 4 -10 5 0 13 5 16 10 3 6 2 10 -4 10 -5 0
-13 -4 -16 -10z"/>
<path d="M3997 1590 c-4 -17 -2 -18 14 -9 11 5 17 14 14 20 -10 15 -22 10 -28
-11z"/>
<path d="M3935 1579 c-4 -6 -5 -12 -2 -15 2 -3 7 2 10 11 7 17 1 20 -8 4z"/>
<path d="M4170 1200 c0 -5 5 -10 10 -10 6 0 10 5 10 10 0 6 -4 10 -10 10 -5 0
-10 -4 -10 -10z"/>
<path d="M1310 4081 c0 -6 5 -13 10 -16 6 -3 10 1 10 9 0 9 -4 16 -10 16 -5 0
-10 -4 -10 -9z"/>
<path d="M1340 3984 c0 -8 5 -12 10 -9 6 3 10 10 10 16 0 5 -4 9 -10 9 -5 0
-10 -7 -10 -16z"/>
<path d="M1313 3790 c0 -30 2 -43 4 -27 2 15 2 39 0 55 -2 15 -4 2 -4 -28z"/>
<path d="M1375 3790 c-18 -8 -17 -9 8 -9 15 -1 27 4 27 9 0 12 -8 12 -35 0z"/>
<path d="M1341 3764 c0 -11 3 -14 6 -6 3 7 2 16 -1 19 -3 4 -6 -2 -5 -13z"/>
<path d="M1311 3674 c0 -11 3 -14 6 -6 3 7 2 16 -1 19 -3 4 -6 -2 -5 -13z"/>
<path d="M2510 2780 c0 -5 5 -10 11 -10 5 0 7 5 4 10 -3 6 -8 10 -11 10 -2 0
-4 -4 -4 -10z"/>
<path d="M4487 2184 c4 -11 8 -12 13 -4 4 7 13 9 19 6 6 -4 11 -2 11 3 0 6
-11 11 -25 11 -18 0 -23 -4 -18 -16z"/>
<path d="M4653 2186 c-10 -11 -9 -15 2 -20 10 -4 15 1 15 14 0 23 -1 24 -17 6z"/>
<path d="M4767 2140 c-3 -11 -1 -20 4 -20 5 0 9 9 9 20 0 11 -2 20 -4 20 -2 0
-6 -9 -9 -20z"/>
<path d="M4850 2059 c0 -11 5 -17 10 -14 6 3 10 13 10 21 0 8 -4 14 -10 14 -5
0 -10 -9 -10 -21z"/>
<path d="M4771 2044 c0 -11 3 -14 6 -6 3 7 2 16 -1 19 -3 4 -6 -2 -5 -13z"/>
<path d="M4910 2050 c0 -5 5 -10 11 -10 5 0 7 5 4 10 -3 6 -8 10 -11 10 -2 0
-4 -4 -4 -10z"/>
<path d="M4880 2041 c0 -5 7 -12 16 -15 14 -5 15 -4 4 9 -14 17 -20 19 -20 6z"/>
<path d="M4706 1900 c-3 -74 -9 -159 -12 -187 -5 -51 -2 -58 27 -55 3 0 5 -20
5 -46 -1 -26 3 -46 9 -44 5 1 8 18 6 37 -1 20 2 35 8 35 6 0 8 -7 5 -15 -4 -8
-1 -15 5 -15 6 0 11 5 11 12 0 17 17 -3 23 -27 4 -15 5 -13 6 8 2 40 21 33 21
-8 0 -33 -1 -34 -32 -29 -35 6 -23 -8 18 -20 29 -9 36 19 37 149 l1 100 3 -85
c3 -60 7 -80 14 -70 9 13 10 13 8 0 -3 -30 1 -113 6 -109 2 3 5 21 7 40 1 18
7 37 13 42 7 5 6 9 -1 15 -8 5 -10 34 -5 97 3 50 4 119 1 155 -5 62 -6 64 -18
37 -7 -16 -13 -47 -13 -70 -1 -31 -4 -24 -10 28 -4 39 -5 77 -3 86 3 9 -2 19
-11 23 -17 6 -35 -28 -35 -70 0 -50 -37 -18 -38 34 -1 47 -12 74 -27 68 -8 -3
-15 0 -18 7 -2 7 -7 -49 -11 -123z m86 -140 c-5 -75 -10 -95 -22 -95 -12 0
-15 15 -13 85 1 47 5 96 8 109 5 21 8 22 20 10 12 -11 13 -33 7 -109z"/>
<path d="M4350 1970 c0 -5 7 -10 16 -10 8 0 12 5 9 10 -3 6 -10 10 -16 10 -5
0 -9 -4 -9 -10z"/>
<path d="M4908 1834 c-4 -34 3 -50 16 -37 9 10 7 73 -3 73 -5 0 -11 -16 -13
-36z"/>
<path d="M4913 1735 c0 -27 2 -38 4 -22 2 15 2 37 0 50 -2 12 -4 0 -4 -28z"/>
<path d="M4385 1710 c3 -5 11 -10 16 -10 6 0 7 5 4 10 -3 6 -11 10 -16 10 -6
0 -7 -4 -4 -10z"/>
<path d="M4168 1703 c7 -3 16 -2 19 1 4 3 -2 6 -13 5 -11 0 -14 -3 -6 -6z"/>
<path d="M4617 1627 c-4 -10 2 -14 19 -14 13 0 24 4 24 10 0 6 -3 7 -7 4 -3
-4 -12 -2 -18 3 -9 7 -14 6 -18 -3z"/>
<path d="M4906 1615 c-3 -8 -1 -17 3 -20 5 -3 11 2 15 10 3 8 1 17 -3 20 -5 3
-11 -2 -15 -10z"/>
<path d="M4852 1600 c0 -14 2 -19 5 -12 2 6 2 18 0 25 -3 6 -5 1 -5 -13z"/>
<path d="M4524 1595 c19 -14 19 -15 1 -15 -10 0 -16 -3 -12 -6 3 -4 13 -4 21
-1 20 8 9 37 -13 37 -14 -1 -13 -3 3 -15z"/>
<path d="M4560 1600 c0 -5 5 -10 11 -10 5 0 7 5 4 10 -3 6 -8 10 -11 10 -2 0
-4 -4 -4 -10z"/>
<path d="M4670 1590 c0 -5 5 -10 11 -10 5 0 7 5 4 10 -3 6 -8 10 -11 10 -2 0
-4 -4 -4 -10z"/>
<path d="M4588 1573 c6 -2 18 -2 25 0 6 3 1 5 -13 5 -14 0 -19 -2 -12 -5z"/>
<path d="M4840 1559 c0 -5 5 -7 10 -4 6 3 10 8 10 11 0 2 -4 4 -10 4 -5 0 -10
-5 -10 -11z"/>
<path d="M175 1541 c-3 -5 -1 -12 5 -16 5 -3 10 1 10 9 0 18 -6 21 -15 7z"/>
<path d="M4734 1534 c9 -8 16 -20 16 -26 0 -19 14 1 15 22 1 15 -5 20 -22 20
-22 0 -23 -1 -9 -16z"/>
<path d="M4453 1518 c-15 -18 -20 -37 -20 -83 0 -43 2 -53 7 -35 8 23 8 23 9
-7 1 -18 -2 -33 -6 -33 -5 0 -8 -56 -8 -125 0 -95 3 -125 13 -125 7 0 15 7 18
15 4 8 13 15 21 15 8 0 11 -5 8 -10 -4 -6 7 -9 27 -8 18 1 43 -1 56 -6 17 -6
22 -4 22 11 0 15 2 16 10 3 6 -10 10 -11 10 -2 0 6 6 12 14 12 8 0 17 8 19 18
4 13 5 11 6 -5 0 -13 -5 -23 -11 -24 -7 0 -4 -4 7 -8 25 -10 55 -2 62 15 4 10
10 11 23 4 25 -14 27 -13 35 13 l7 22 8 -25 c5 -17 8 -19 9 -7 1 9 7 17 15 17
8 0 15 8 15 18 1 34 13 82 22 82 5 0 9 -27 9 -60 0 -33 4 -60 10 -60 6 0 10
58 10 155 0 97 -4 155 -10 155 -6 0 -10 -35 -10 -84 0 -47 -3 -87 -8 -89 -4
-3 -7 32 -7 76 -1 98 -8 125 -30 107 -10 -8 -15 -30 -15 -61 0 -69 -18 -61
-26 11 -8 71 -25 92 -48 58 -9 -12 -16 -37 -16 -54 0 -21 -6 -34 -17 -39 -15
-5 -16 -4 -5 6 14 15 16 33 2 24 -9 -6 -11 5 -14 63 -1 22 -18 40 -42 44 -29
5 -44 -74 -45 -234 l-1 -138 -26 0 c-46 0 -49 8 -42 110 5 68 8 81 10 45 l2
-50 8 37 c4 21 4 71 1 113 -4 42 -3 76 3 78 16 5 -4 44 -30 55 -34 16 -37 15
-61 -10z m74 -125 c-3 -10 -5 -2 -5 17 0 19 2 27 5 18 2 -10 2 -26 0 -35z
m178 -144 c0 -86 -3 -104 -15 -104 -12 0 -15 14 -14 70 2 134 3 147 17 143 8
-3 12 -34 12 -109z m86 10 c-1 -72 -5 -88 -17 -76 -8 8 -6 136 2 149 12 19 17
-3 15 -73z m-34 -101 c-3 -7 -5 -2 -5 12 0 14 2 19 5 13 2 -7 2 -19 0 -25z"/>
<path d="M4829 1517 c6 -8 8 -17 4 -20 -3 -4 1 -7 11 -7 14 0 15 4 6 20 -6 11
-16 20 -22 20 -7 0 -7 -4 1 -13z"/>
<path d="M4565 1510 c-3 -5 -2 -10 4 -10 5 0 13 5 16 10 3 6 2 10 -4 10 -5 0
-13 -4 -16 -10z"/>
<path d="M4705 1500 c3 -5 8 -10 11 -10 2 0 4 5 4 10 0 6 -5 10 -11 10 -5 0
-7 -4 -4 -10z"/>
<path d="M4180 1471 c0 -5 5 -13 10 -16 6 -3 10 -2 10 4 0 5 -4 13 -10 16 -5
3 -10 2 -10 -4z"/>
<path d="M4902 1390 c0 -19 2 -27 5 -17 2 9 2 25 0 35 -3 9 -5 1 -5 -18z"/>
<path d="M4163 1373 c9 -2 23 -2 30 0 6 3 -1 5 -18 5 -16 0 -22 -2 -12 -5z"/>
<path d="M4160 1270 c-12 -8 -11 -10 8 -10 12 0 22 5 22 10 0 13 -11 13 -30 0z"/>
<path d="M4913 1243 c-7 -2 -13 -20 -13 -39 0 -28 2 -32 13 -23 11 10 24 71
15 68 -2 0 -9 -3 -15 -6z"/>
<path d="M1815 1180 c-4 -6 6 -10 22 -10 22 0 25 2 13 10 -19 12 -27 12 -35 0z"/>
<path d="M1033 1129 c-13 -5 -23 -16 -23 -25 0 -11 5 -14 16 -10 9 3 22 6 29
6 7 0 12 7 11 15 -3 21 -9 24 -33 14z"/>
<path d="M958 1123 c6 -3 12 -14 12 -25 0 -24 13 -16 17 10 1 12 -5 18 -20 19
-12 0 -16 -1 -9 -4z"/>
<path d="M2975 1120 c3 -6 22 -10 41 -10 46 0 36 16 -11 18 -21 1 -33 -3 -30
-8z"/>
<path d="M3068 1113 c7 -3 16 -2 19 1 4 3 -2 6 -13 5 -11 0 -14 -3 -6 -6z"/>
<path d="M2420 1100 c-8 -5 -11 -12 -7 -16 4 -4 15 0 24 9 18 18 8 23 -17 7z"/>
<path d="M1340 1051 c0 -5 9 -7 20 -4 11 3 20 7 20 9 0 2 -9 4 -20 4 -11 0
-20 -4 -20 -9z"/>
<path d="M1618 1043 c7 -3 16 -2 19 1 4 3 -2 6 -13 5 -11 0 -14 -3 -6 -6z"/>
<path d="M3193 1043 c9 -2 23 -2 30 0 6 3 -1 5 -18 5 -16 0 -22 -2 -12 -5z"/>
<path d="M1118 1033 c7 -3 16 -2 19 1 4 3 -2 6 -13 5 -11 0 -14 -3 -6 -6z"/>
<path d="M1285 1030 c-3 -5 -1 -10 4 -10 6 0 11 5 11 10 0 6 -2 10 -4 10 -3 0
-8 -4 -11 -10z"/>
<path d="M1580 1030 c0 -5 5 -10 10 -10 6 0 10 5 10 10 0 6 -4 10 -10 10 -5 0
-10 -4 -10 -10z"/>
<path d="M1335 1020 c-3 -5 -2 -10 4 -10 5 0 13 5 16 10 3 6 2 10 -4 10 -5 0
-13 -4 -16 -10z"/>
<path d="M1743 1013 c9 -2 23 -2 30 0 6 3 -1 5 -18 5 -16 0 -22 -2 -12 -5z"/>
<path d="M2128 1013 c7 -3 16 -2 19 1 4 3 -2 6 -13 5 -11 0 -14 -3 -6 -6z"/>
<path d="M1883 1003 c9 -2 25 -2 35 0 9 3 1 5 -18 5 -19 0 -27 -2 -17 -5z"/>
</g>
</svg>
